<svg width="400" height="281.5" viewBox="115 10 270 190" xmlns="http://www.w3.org/2000/svg">
	  <defs>
    <clipPath id="duckClip">
      <path d="M229.813 26.124c-1.486.641-1.583 1.075-1.595 7.179-.025 12.51-4.491 17.74-19.337 22.643-25.445 8.403-41.737 21.601-51.625 41.821-13.451 27.507-9.363 58.366 11.149 84.155 5.235 6.581 5.448 8.699 1.254 12.469-11.571 10.404-46.026 15.663-64.027 9.773-6.488-2.123-10.707-4.898-16.78-11.039-7.228-7.308-11.03-9.375-17.27-9.388-12.75-.027-24.463 14.378-22.409 27.557.604 3.875.664 3.688-1.391 4.328-14.185 4.423-19.766 40.725-10.934 71.118 12.183 41.922 49.496 72.017 102.227 82.452 65.076 12.878 136.278 3.582 170.968-22.322 40.67-30.368 42.945-90.606 4.891-129.497-6.321-6.46-11.864-10.647-22.311-16.854-7.227-4.294-8.336-7.473-3.799-10.888 3.1-2.332 4.406-3.822 4.146-4.729-.632-2.208-1.239-1.954 5.754-2.408 16.823-1.094 32.11-6.886 43.12-16.337 17.938-15.399 15.493-36.548-3.668-31.728-10.348 2.604-16.597 1.253-23.289-5.031-1.179-1.108-2.81-2.405-3.624-2.882l-1.479-.867-.206-2.776c-1.983-26.747-16.926-48.537-40.476-59.023-3.611-1.607-3.526-1.476-2.421-3.723 3.688-7.501 2.488-19.298-1.964-19.298-.848 0-1.728.56-5.904 3.751-2.393 1.829-9.239 5.419-9.616 5.043-.128-.129-.254-1.342-.279-2.696-.145-7.943-5.327-15.687-13.079-19.548-2.633-1.311-4.833-1.77-6.026-1.255"/>
    </clipPath>
  </defs>
	<g fill-rule="evenodd" clip-path="url(#duckClip)">
		<path d="M234.448 36.266c-.01 12.233-7.208 20.099-23.439 25.611-16.01 5.437-25.219 10.798-34.564 20.122-25.389 25.33-27.345 65.907-4.519 93.759 4.711 5.747 6.112 7.602 6.99 9.25 3.494 6.559 2.281 15.026-2.854 19.924-2.72 2.594-3.413 2.304-2.098-.881.816-1.977 1.619-5.608 1.308-5.918-.09-.091-.7.353-1.354.985-9.6 9.276-38.481 15.856-59.078 13.459-13.246-1.541-20.808-5.271-30.639-15.114-8.047-8.056-12.214-9.334-18.97-5.817-11.71 6.096-13.391 22.385-3.164 30.66 3.371 2.728.526 2.877-5.894.31-7.301-2.92-10.218-1.062-13.403 8.541-8.523 25.694-2.699 58.893 14.525 82.796 26.364 36.586 72.372 54.219 141.589 54.265 13.602.009 16.47-.116 28.708-1.251 71.258-6.607 109.308-37.475 107.881-87.519-.874-30.633-17.724-57.006-47.418-74.218-4.379-2.538-7.98-6.754-7.996-9.36-.009-1.563-.294-1.674-2.889-1.126-7.179 1.515-21.827.44-21.827-1.603 0-.587.401-.678 5.263-1.183 10.1-1.05 17.739-3.412 23.398-7.235 2.861-1.933 2.842-2.034-.487-2.526-9.21-1.364-15.574-6.798-15.574-13.297 0-4.909 2.093-7.526 8.669-10.835 8.827-4.441 10.642-6.763 13.817-17.675 2.53-8.698 6.257-13.568 11.51-15.038l1.489-.417-.219-2.711c-1.969-24.262-16.806-44.461-39.517-53.797-2.8-1.151-2.824-1.155-4.306-.663-4.19 1.392-12.489 1.475-12.749.128-.077-.4.524-.731 2.548-1.402 8.573-2.843 13.654-8.915 13.654-16.318 0-1.955-.179-2.042-1.456-.709-3.055 3.191-11.202 7.127-18.472 8.923-6.529 1.614-7.274 1.285-4.242-1.868 5.776-6.008 5.436-13.351-.948-20.473-.708-.79-1.733-1.695-2.279-2.012l-.992-.576zm55.823 42.043c.953.965 1.804 1.755 1.892 1.755s-.62-.79-1.573-1.755-1.804-1.754-1.892-1.754.62.789 1.573 1.754m-26.71 25.678c12.443 3.843 16.489 23.183 6.797 32.49-10.742 10.315-27.106 1.183-27.067-15.105.03-12.167 9.862-20.6 20.27-17.385m-114.198 23.445c.003.702.069.951.145.555.076-.397.073-.971-.007-1.276-.079-.305-.142.019-.138.721m-.007 8.134c0 .614.066.865.146.558s.08-.809 0-1.116-.146-.056-.146.558m178.315-.099c.307.08.81.08 1.117 0s.056-.146-.558-.146-.866.066-.559.146M89.952 194.099c.595.614 1.154 1.116 1.242 1.116.087 0-.328-.502-.923-1.116s-1.154-1.117-1.241-1.117.327.503.922 1.117m225.997 24.083c1.042 1.052 1.966 1.914 2.053 1.914.088 0-.692-.862-1.734-1.914s-1.966-1.914-2.053-1.914c-.088 0 .692.861 1.734 1.914M32.297 253.11c.004.702.069.951.146.555.076-.397.073-.971-.007-1.276s-.142.019-.139.721m38.676 6.561c21.497 40.674 83.551 54.849 124.748 28.495 5.091-3.256 2.93 1.345-2.963 6.308-14.554 12.258-40.299 17.455-63.571 12.832-30.808-6.119-57.572-27.2-60.794-47.884-.497-3.193.828-3.065 2.58.249m271.372 21.509c.004.702.069.952.145.555.077-.397.074-.971-.006-1.276s-.142.019-.139.721m-153.42 93.855c.839.066 2.131.066 2.871-.001s.054-.121-1.525-.12-2.185.056-1.346.121m16.896-.002c.658.069 1.735.069 2.393 0s.119-.125-1.196-.125c-1.316 0-1.855.056-1.197.125" fill="#fbc40b"/>
		<path d="M229.813 26.124c-1.486.641-1.583 1.075-1.595 7.179-.025 12.51-4.491 17.74-19.337 22.643-25.445 8.403-41.737 21.601-51.625 41.821-13.451 27.507-9.363 58.366 11.149 84.155 5.235 6.581 5.448 8.699 1.254 12.469-11.571 10.404-46.026 15.663-64.027 9.773-6.488-2.123-10.707-4.898-16.78-11.039-7.228-7.308-11.03-9.375-17.27-9.388-12.75-.027-24.463 14.378-22.409 27.557.604 3.875.664 3.688-1.391 4.328-14.185 4.423-19.766 40.725-10.934 71.118 12.183 41.922 49.496 72.017 102.227 82.452 65.076 12.878 136.278 3.582 170.968-22.322 40.67-30.368 42.945-90.606 4.891-129.497-6.321-6.46-11.864-10.647-22.311-16.854-7.227-4.294-8.336-7.473-3.799-10.888 3.1-2.332 4.406-3.822 4.146-4.729-.632-2.208-1.239-1.954 5.754-2.408 16.823-1.094 32.11-6.886 43.12-16.337 17.938-15.399 15.493-36.548-3.668-31.728-10.348 2.604-16.597 1.253-23.289-5.031-1.179-1.108-2.81-2.405-3.624-2.882l-1.479-.867-.206-2.776c-1.983-26.747-16.926-48.537-40.476-59.023-3.611-1.607-3.526-1.476-2.421-3.723 3.688-7.501 2.488-19.298-1.964-19.298-.848 0-1.728.56-5.904 3.751-2.393 1.829-9.239 5.419-9.616 5.043-.128-.129-.254-1.342-.279-2.696-.145-7.943-5.327-15.687-13.079-19.548-2.633-1.311-4.833-1.77-6.026-1.255m7.833 9.55c6.756 6.857 7.244 15.356 1.212 21.129-2.637 2.524-2.055 2.758 3.507 1.41 6.984-1.692 13.621-4.794 18.156-8.487 2.816-2.293 2.637-2.302 2.637.127 0 7.774-5.06 14.089-13.47 16.813-1.355.439-2.504.942-2.551 1.117-.296 1.084 8.886.842 12.246-.323 1.757-.609 3.002-.211 9.517 3.047 19.804 9.902 32.893 29.4 34.62 51.571l.229 2.939-.918.361c-7.144 2.814-9.702 6.275-12.713 17.206-2.206 8.009-5.364 11.84-12.766 15.486-7.273 3.583-9.397 6.316-9.018 11.603.437 6.079 7.131 11.261 15.907 12.312 3.212.384 3.21.824-.018 3.013-5.801 3.937-13.982 6.426-24.181 7.359-2.328.213-4.3.496-4.383.63-1.056 1.708 15.085 2.836 21.215 1.482 3.213-.71 3.09-.751 3.493 1.132.765 3.566 3.397 6.764 7.537 9.16 36.231 20.963 53.986 56.719 46.365 93.376-8.763 42.15-45.86 64.461-116.406 70.011-31.879 2.508-74.633-2.238-100.899-11.199-55.493-18.935-86.905-67.665-76.424-118.558 3.272-15.891 6.847-19.517 15.816-16.043 3.488 1.35 6.358 2.126 6.679 1.804.11-.109-1.015-1.39-2.5-2.845-7.501-7.353-7.564-18.273-.15-26.27 7.48-8.069 14.318-7.455 24.005 2.155 7.158 7.101 12.157 10.435 18.959 12.644 20.729 6.732 56.02 1.211 70.415-11.015 1.271-1.079 1.719-1.31 1.855-.955.291.757-.479 4.386-1.326 6.257-1.16 2.561-.548 2.73 1.686.467 3.112-3.152 4.563-6.709 4.563-11.18 0-5.789-1.066-7.914-8.616-17.174-24.443-29.976-20.883-73.201 8.074-98.022 8.848-7.584 17.246-12.121 30.526-16.49 16.043-5.278 23.027-12.687 23.527-24.962.181-4.436.268-4.462 3.593-1.088m17.075 68.668c-11.789 4.054-15.028 21.036-5.915 31.007 7.478 8.182 19.849 6.295 24.718-3.77 6.881-14.226-5.305-31.878-18.803-27.237m11.627 5.884c2.7 1.373 4.191 4.993 3.169 7.696-2.245 5.941-11.463 3.919-11.463-2.514 0-4.389 4.422-7.152 8.294-5.182m40.974 21.228c.82.228 1.992 1.044 3.349 2.332 8.129 7.715 16.604 9.657 28.581 6.547 7.639-1.983 10.319.779 7.968 8.215-2.976 9.412-14.859 18.896-30.065 23.996-20.194 6.773-43.916 4.287-42.741-4.479.248-1.845 1.164-2.648 5.266-4.613 9.651-4.623 13.273-9.125 16.633-20.672 2.747-9.442 5.945-12.732 11.009-11.326M68.581 258.293c.011 11.731 14.703 28.932 33.173 38.837 33.065 17.73 77.573 14.271 95.228-7.403 2.373-2.914 1.892-3.045-2.217-.606-27.623 16.394-60.878 17.309-90.176 2.482-15.234-7.71-27.481-19.214-34.1-32.032-1.167-2.261-1.909-2.758-1.908-1.278" fill=""/>
		<path d="M0 0h400v400H0zM235.885 27.091c7.856 3.878 13.175 11.708 13.285 19.56.029 2.052.123 2.472.552 2.472 1.403-.001 7.691-3.643 10.725-6.211 4.645-3.934 6.877-3.12 8.286 3.021 1.001 4.359.355 9.844-1.649 14.006-.472.981-.867 1.896-.877 2.034s1.349.867 3.021 1.62c23.427 10.552 38.317 31.786 40.508 57.77.192 2.277.376 4.154.41 4.171 1.389.738 3.059 1.979 4.753 3.533 4.387 4.024 7.627 5.602 12.688 6.18 3.279.374 5.56.096 12.212-1.489 12.331-2.937 18.413 7.903 11.723 20.896-7.925 15.392-28.646 26.403-53.117 28.225-3.018.224-5.405.538-5.384.708.022.167.133.702.247 1.187.255 1.082-1.764 3.413-4.657 5.381-4.414 3.001-2.865 5.875 6.058 11.239 58.6 35.233 64.531 113.464 11.276 148.737-35.408 23.453-102.734 31.479-165.215 19.698-59.481-11.216-98.937-46.661-107.202-96.304-4.285-25.739 2.438-54.624 13.486-57.95 2.459-.74 2.465-.745 2.265-1.699-3.747-17.912 12.75-34.909 28.534-29.399 3.37 1.177 5.207 2.553 11.226 8.41 10.188 9.915 17.141 12.808 32.168 13.387 23.571.908 51.042-8.262 51.042-17.039 0-1.727-.66-2.844-4.668-7.898-9.417-11.876-14.736-23.211-16.99-36.201-5.43-31.302 7.178-60.593 33.662-78.208 6.974-4.639 13.286-7.55 24.142-11.137 15.157-5.008 19.493-9.993 19.53-22.458.02-6.338.069-6.575 1.524-7.318 1.456-.744 3.413-.416 6.436 1.076m26.794 82.866c-7.01 1.692-4.92 11.983 2.269 11.172 5.879-.662 6.033-9.445.194-11.067-1.246-.346-1.432-.354-2.463-.105" fill="#f4f4f4"/>
		<path d="M234.476 26.594c.329.294 2.207 1.157 2.207 1.014 0-.184-1.769-1.133-2.111-1.133-.126 0-.169.054-.096.119m-6.638 2.752c0 .79.062 1.113.138.718a4.6 4.6 0 0 0 0-1.436c-.076-.394-.138-.071-.138.718m13.629 1.695c0 .055.467.521 1.037 1.036l1.037.937-.937-1.036c-.873-.967-1.137-1.184-1.137-.937m-13.282 3.409c0 1.666.054 2.348.12 1.515.065-.833.065-2.197 0-3.03-.066-.834-.12-.152-.12 1.515m5.868 2.312c-.5 12.275-7.484 19.684-23.527 24.962-13.28 4.369-21.678 8.906-30.526 16.49-28.957 24.821-32.517 68.046-8.074 98.022 7.55 9.26 8.616 11.385 8.616 17.174 0 4.471-1.451 8.028-4.563 11.18-2.234 2.263-2.846 2.094-1.686-.467.847-1.871 1.617-5.5 1.326-6.257-.136-.355-.584-.124-1.855.955-14.395 12.226-49.686 17.747-70.415 11.015-6.802-2.209-11.801-5.543-18.959-12.644-9.687-9.61-16.525-10.224-24.005-2.155-7.414 7.997-7.351 18.917.15 26.27 1.485 1.455 2.61 2.736 2.5 2.845-.321.322-3.191-.454-6.679-1.804-6.754-2.616-9.317-1.73-12.127 4.193-7.569 15.952-7.383 43.315.436 64.238 15.372 41.133 53.817 67.3 110.04 74.897 12.028 1.625 28.624 2.938 33.812 2.674 2.159-.109 2.066-.128-.957-.187-38.075-.752-72.928-9.397-97.92-24.289-37.608-22.408-57.556-65.958-48.632-106.172 3.321-14.962 6.806-18.429 15.165-15.086 6.42 2.567 9.265 2.418 5.894-.31-10.227-8.275-8.546-24.564 3.164-30.66 6.756-3.517 10.923-2.239 18.97 5.817 9.831 9.843 17.393 13.573 30.639 15.114 20.597 2.397 49.478-4.183 59.078-13.459.654-.632 1.264-1.076 1.354-.985.311.31-.492 3.941-1.308 5.918-1.315 3.185-.622 3.475 2.098.881 5.135-4.898 6.348-13.365 2.854-19.924-.878-1.648-2.279-3.503-6.99-9.25-22.826-27.852-20.87-68.429 4.519-93.759 9.345-9.324 18.554-14.685 34.564-20.122 16.231-5.512 23.429-13.378 23.439-25.611l.002-2.809.992.576c.546.317 1.571 1.222 2.279 2.012 6.384 7.122 6.724 14.465.948 20.473-3.032 3.153-2.287 3.482 4.242 1.868 7.27-1.796 15.417-5.732 18.472-8.923 1.277-1.333 1.456-1.246 1.456.709 0 7.403-5.081 13.475-13.654 16.318-2.024.671-2.625 1.002-2.548 1.402.26 1.347 8.559 1.264 12.749-.128 1.482-.492 1.506-.488 4.306.663 22.711 9.336 37.548 29.535 39.517 53.797l.219 2.711-1.489.417c-5.253 1.47-8.98 6.34-11.51 15.038-3.175 10.912-4.99 13.234-13.817 17.675-6.576 3.309-8.669 5.926-8.669 10.835 0 6.499 6.364 11.933 15.574 13.297 3.329.492 3.348.593.487 2.526-5.659 3.823-13.298 6.185-23.398 7.235-4.862.505-5.263.596-5.263 1.183 0 2.043 14.648 3.118 21.827 1.603 2.595-.548 2.88-.437 2.889 1.126.016 2.606 3.617 6.822 7.996 9.36 35.529 20.593 53.212 55.95 46.042 92.059-9.063 45.643-52.89 69.201-132.343 71.137l-10.845.264 11.483-.129c85.605-.96 133.493-32.037 133.493-86.63 0-31.76-17.138-59.325-47.981-77.17-4.14-2.396-6.772-5.594-7.537-9.16-.403-1.883-.28-1.842-3.493-1.132-6.13 1.354-22.271.226-21.215-1.482.083-.134 2.055-.417 4.383-.63 10.199-.933 18.38-3.422 24.181-7.359 3.228-2.189 3.23-2.629.018-3.013-8.776-1.051-15.47-6.233-15.907-12.312-.379-5.287 1.745-8.02 9.018-11.603 7.402-3.646 10.56-7.477 12.766-15.486 3.011-10.931 5.569-14.392 12.713-17.206l.918-.361-.229-2.939c-1.727-22.171-14.816-41.669-34.62-51.571-6.515-3.258-7.76-3.656-9.517-3.047-3.36 1.165-12.542 1.407-12.246.323.047-.175 1.196-.678 2.551-1.117 8.41-2.724 13.47-9.039 13.47-16.813 0-2.429.179-2.42-2.637-.127-4.535 3.693-11.172 6.795-18.156 8.487-5.562 1.348-6.144 1.114-3.507-1.41 6.032-5.773 5.544-14.272-1.212-21.129-3.325-3.374-3.412-3.348-3.593 1.088m12.04.24c.272.526.566.957.654.957s-.063-.431-.336-.957c-.272-.527-.566-.957-.654-.957s.063.43.336.957m-18.916 4.051c-.472 1.538-.244 1.766.255.255.211-.638.321-1.221.245-1.297s-.301.393-.5 1.042m38.953.133c.319.186.857.791 1.195 1.346s.616.84.616.634c.002-.525-1.573-2.339-2.02-2.327-.204.005-.11.162.209.347m-6.964 2.783a152 152 0 0 1-2.711 2.059c-.436.315-.578.472-.315.349.827-.387 4.321-2.915 4.761-3.445.618-.745.388-.607-1.735 1.037m-33.107-.105c-.292.611-.465 1.112-.384 1.112.218 0 1.186-1.953 1.04-2.099-.069-.069-.364.375-.656.987m22.819 1.431c0 .614.065.865.146.558s.08-.809 0-1.116c-.081-.307-.146-.056-.146.558m-24.318 1.037c-.469.641-.546.864-.202.584.523-.425 1.314-1.621 1.072-1.621-.061 0-.452.467-.87 1.037m29.906.74c-1.193.647-1.12.917.079.296.527-.272.957-.563.957-.646 0-.205-.034-.193-1.036.35m-31.993 1.812-1.261 1.355 1.356-1.261c1.261-1.172 1.502-1.45 1.261-1.45-.052 0-.662.61-1.356 1.356m26.379-.338c-.058 1.031.382 1.376 1.145.898.492-.308.476-.328-.134-.163-.576.157-.718.036-.829-.702l-.135-.892zm2.823-.061c-.614.336-.973.611-.798.611.176 0 .822-.275 1.436-.611s.972-.611.797-.611-.821.275-1.435.611m17.327 2.233c0 1.14.058 1.607.128 1.036.071-.57.071-1.503 0-2.073s-.128-.104-.128 1.037m-50.262.82c-1.192.647-1.12.916.08.296.526-.272.957-.563.957-.646 0-.205-.035-.194-1.037.35m-7.735 3.497c-.798.384-.824.429-.16.266.904-.221 1.92-.739 1.436-.731-.176.002-.75.212-1.276.465m-3.509 1.105c-.402.173-.461.274-.159.274.263 0 .765-.123 1.116-.274.402-.172.461-.274.159-.274-.263 0-.765.124-1.116.274m58.365 5.437c-.236.381.396 1.262.906 1.262.187 0 .076-.194-.248-.43-.323-.237-.486-.596-.361-.798s.156-.367.068-.367-.252.15-.365.333m-73.596.646c-.658.347-1.196.702-1.196.79 0 .142 2.519-1.036 2.844-1.33.367-.332-.591-.018-1.648.54m76.316 1.413c.438.251.941.456 1.116.456s-.04-.205-.478-.456c-.439-.25-.941-.455-1.117-.455-.175 0 .04.205.479.455m4.784 2.22c0 .088.574.453 1.276.811s1.276.579 1.276.491-.574-.452-1.276-.81-1.276-.579-1.276-.492m-90.356 1.939c-.655.445-1.191.877-1.191.961s.574-.227 1.276-.692c1.114-.737 1.491-1.078 1.191-1.078-.047 0-.622.364-1.276.809m-4.221 3.127c-1.404 1.109-2.761 2.292-3.017 2.629-.255.336.032.169.638-.373.607-.541 2-1.675 3.097-2.519 1.752-1.349 2.208-1.767 1.913-1.757-.043.002-1.228.911-2.631 2.02m102.859.11c3.274 2.659 4.693 3.697 3.324 2.431a29 29 0 0 0-2.87-2.271c-1.197-.813-1.303-.85-.454-.16m-110.049 6.4c-2.942 3.01-6.35 6.745-4.584 5.024 1.743-1.698 8.194-8.453 8.073-8.453-.076 0-1.646 1.543-3.489 3.429m118.208.697c1.762 1.853 3.895 4.16 4.741 5.125 1.263 1.44 1.346 1.497.465.319-.59-.79-2.723-3.096-4.741-5.125l-3.668-3.69zm-125.257 7.278c-.918 1.108-1.307 1.674-1.149 1.674.088 0 .544-.502 1.012-1.116.869-1.14.975-1.57.137-.558m132.102.717c.374.527.753.957.841.957s-.148-.43-.522-.957c-.375-.526-.753-.957-.841-.957s.147.431.522.957m-134.217 2.154c-.825 1.192-1.094 1.674-.932 1.674.075 0 .516-.574.98-1.276.944-1.426.903-1.771-.048-.398m139.248 6.033c1.005 1.959 1.872 3.517 1.926 3.463.14-.139-2.648-5.608-3.255-6.386-.273-.351.325.964 1.329 2.923m-142.671-.531c-.272.526-.423.957-.335.957s.382-.431.654-.957.423-.957.336-.957c-.088 0-.383.431-.655.957m-3.297 6.553c-.535 1.173-.433 1.423.145.357.27-.498.431-.966.358-1.039s-.299.234-.503.682m98.25 3.96c-9.389 3.703-13.503 15.882-8.815 26.091 7.179 15.632 27.241 13.071 30.29-3.867 2.587-14.369-9.549-26.929-21.475-22.224m8.489-.293c8.522 1.965 14.49 12.51 12.686 22.412-3.627 19.904-29.009 18.021-31.383-2.329-1.465-12.559 7.866-22.582 18.697-20.083m5.348 7.663c.692.801 1.323 1.406 1.402 1.345s-.487-.716-1.258-1.456l-1.402-1.345zm-8.213-.419c-.562.654-.984 1.356-.815 1.356.065 0 .437-.431.826-.957.769-1.04.761-1.299-.011-.399m10.041 4.705c.002.877.064 1.198.137.713s.072-1.202-.004-1.595c-.076-.392-.136.005-.133.882m39.536 2.073c0 .614.066.866.146.559s.08-.81 0-1.117-.146-.056-.146.558m-40.425.743c-.351.543-1.126 1.316-1.722 1.718s-.924.729-.729.729c.47 0 2.546-1.835 2.968-2.623.544-1.017.172-.891-.517.176m40.765 2.766c0 .965.06 1.36.133.877a7 7 0 0 0 0-1.754c-.073-.483-.133-.088-.133.877m-45.944-.09c.485.073 1.203.071 1.595-.004.392-.076-.004-.136-.882-.134-.877.003-1.198.065-.713.138m-113.873 3.28c0 .789.062 1.112.138.718a4.6 4.6 0 0 0 0-1.436c-.076-.395-.138-.072-.138.718m164.666 4.102c.702.756 1.85 1.818 2.552 2.359 1.487 1.148 1.103.742-1.754-1.852-1.484-1.346-1.711-1.491-.798-.507m-164.955 2.756c.001 1.754.054 2.431.119 1.504.064-.927.064-2.362-.002-3.189-.065-.828-.118-.069-.117 1.685m153.372.349c-3.053 1.521-4.404 3.792-6.458 10.852-3.36 11.547-6.982 16.049-16.633 20.672-4.102 1.965-5.018 2.768-5.266 4.613-1.175 8.766 22.547 11.252 42.741 4.479 15.206-5.1 27.089-14.584 30.065-23.996 2.351-7.436-.329-10.198-7.968-8.215-11.977 3.11-20.452 1.168-28.581-6.547-2.996-2.844-4.984-3.311-7.9-1.858m16.527.925c0 .216 2.591 1.504 2.735 1.36.067-.067-.521-.434-1.306-.815-.786-.382-1.429-.627-1.429-.545m23.046.713c.658.069 1.735.069 2.393 0s.119-.125-1.196-.125c-1.316 0-1.854.056-1.197.125m8.693 2.957c.685.702 1.317 1.276 1.405 1.276s-.401-.574-1.086-1.276c-.686-.702-1.318-1.276-1.406-1.276s.401.574 1.087 1.276m-21.607-.731c.396.076.971.073 1.275-.007.305-.079-.019-.142-.721-.138s-.951.068-.554.145m-179.748 1.529c.003.701.069.951.145.554s.073-.971-.007-1.276c-.079-.305-.142.02-.138.722m204.481 7.177c0 .965.059 1.359.132.877a7 7 0 0 0 0-1.755c-.073-.482-.132-.087-.132.878m-2.742 9.737c-.471.96-.788 1.746-.705 1.746.215 0 1.823-3.229 1.68-3.372-.065-.066-.504.666-.975 1.626m-198.266.789c0 .263.123.765.274 1.116.173.402.274.461.274.16 0-.263-.123-.766-.274-1.117-.173-.402-.274-.461-.274-.159m196.275 2.632c-.492.745-.69 1.187-.441.981.479-.396 1.7-2.337 1.47-2.337-.074 0-.537.61-1.029 1.356m-4.454 5.459c-1.228 1.285-3.026 3.04-3.996 3.901-.969.86-1.544 1.413-1.276 1.227 1.999-1.383 8.239-7.513 7.606-7.471-.056.004-1.106 1.058-2.334 2.343m-189.61-1.871c0 .175.205.678.455 1.116.251.439.456.654.456.479s-.205-.678-.456-1.117c-.25-.438-.455-.653-.455-.478m1.891 4.109c0 .343.949 2.111 1.133 2.111.087 0-.078-.466-.368-1.037-.592-1.164-.765-1.407-.765-1.074m180.383 4.212-.957.823 1.036-.686c.57-.378 1.037-.748 1.037-.824 0-.239-.135-.156-1.116.687m-177.234 1.567c.172.351.547.925.832 1.276l.52.638-.314-.638a8 8 0 0 0-.832-1.276l-.52-.638zm169.1 3.19c-1.141.597-1.962 1.093-1.825 1.101.339.021 4.057-1.869 4.057-2.062 0-.215.075-.247-2.232.961m-165.883 1.735c.707 1.042 1.432 1.984 1.611 2.095.179.11-.334-.742-1.139-1.894-.806-1.153-1.531-2.095-1.612-2.095-.08 0 .432.852 1.14 1.894m161.098.498c-.439.251-.654.456-.479.456s.678-.205 1.117-.456.654-.456.478-.456c-.175 0-.678.205-1.116.456m-158.214 3.349c.556.702 1.082 1.276 1.17 1.276s-.295-.574-.851-1.276c-.556-.701-1.082-1.276-1.17-1.276s.295.575.851 1.276m136.128 2.459c.397.076.971.073 1.276-.007s-.019-.142-.721-.138-.951.068-.555.145m-3.986.322c.485.073 1.202.071 1.595-.004.392-.076-.005-.136-.882-.134s-1.198.065-.713.138m-5.932.303c-.117.117-.211.368-.208.558.003.22.092.208.245-.033.133-.208.956-.433 1.83-.5l1.588-.123-1.621-.057c-.892-.032-1.717.038-1.834.155M170.07 184.37c.627.789 1.368 1.866 1.646 2.392.279.527.513.802.52.613.018-.487-1.751-3.094-2.596-3.827-.39-.337-.196.033.43.822m-99.336-.726c.57.071 1.503.071 2.073 0s.104-.129-1.037-.129c-1.14 0-1.607.058-1.036.129m9.29 2.155c1.118.603 2.338 1.353 2.711 1.668.674.568.675.567.102-.111-.558-.662-4.018-2.674-4.572-2.66-.151.004.64.501 1.759 1.103m210.726 2.3c-1.143 1.067-1.4 1.395-.638.815 1.203-.917 2.981-2.647 2.687-2.615-.075.008-.997.818-2.049 1.8m-118.448 1.109c-.029.644-.136 1.433-.237 1.755-.173.55-.162.551.179.02.199-.31.305-1.099.237-1.754l-.125-1.191zM56.29 190.51l-1.904 1.994 1.994-1.904c1.851-1.768 2.139-2.083 1.903-2.083-.049 0-.946.897-1.993 1.993m30.632.559c1.041 1.052 1.966 1.913 2.053 1.913.088 0-.693-.861-1.734-1.913-1.042-1.053-1.966-1.914-2.054-1.914s.693.861 1.735 1.914m83.401 2.405c-.602.621-1.851 1.649-2.774 2.286-1.859 1.279-2.227 1.723-.689.829 1.008-.586 5.057-4.205 4.734-4.23-.097-.008-.67.494-1.271 1.115m115.875-.173c0 .614.066.866.146.559.081-.307.081-.81 0-1.117-.08-.307-.146-.056-.146.558m-232.535.24c-.826 1.192-1.095 1.674-.933 1.674.075 0 .516-.574.98-1.276.944-1.426.903-1.771-.047-.398m35.332-.158c0 .08 1.184 1.206 2.632 2.502 1.447 1.295 2.432 2.102 2.188 1.793-.543-.689-4.82-4.5-4.82-4.295m-37.496 3.778c-.453.895-.771 1.68-.705 1.745.065.066.504-.666.975-1.626.47-.96.788-1.746.705-1.746s-.522.732-.975 1.627m236.613.148c.655.699 1.66 1.525 2.233 1.835 1.007.546 1.015.545.245-.007-.438-.315-1.443-1.141-2.233-1.836l-1.435-1.263zm-125.433 1.256c-1.14.597-1.961 1.092-1.825 1.101.339.021 4.058-1.869 4.058-2.063 0-.214.075-.247-2.233.962m-65.071 1.901c0 .087.574.452 1.276.81.701.358 1.275.579 1.275.491s-.574-.452-1.275-.81c-.702-.358-1.276-.579-1.276-.491m199.979 2.982c.427.347 1.216.873 1.754 1.17l.978.539-.776-.631a14.4 14.4 0 0 0-1.755-1.169l-.978-.539zm-248.696 3.251c0 .789.062 1.112.138.717a4.5 4.5 0 0 0 0-1.435c-.076-.395-.138-.072-.138.718m86.599-.732c.397.077.971.074 1.276-.006s-.02-.142-.721-.139c-.702.004-.952.069-.555.145m-19.616.322c.484.074 1.202.072 1.595-.004.392-.076-.005-.136-.882-.133-.877.002-1.198.064-.713.137m15.63 0c.484.074 1.202.072 1.594-.004s-.004-.136-.881-.133c-.877.002-1.198.064-.713.137m-9.893.328a69 69 0 0 0 4.944 0c1.36-.06.247-.109-2.472-.109s-3.832.049-2.472.109m185.566 3.594c2.608 2.397 5.508 4.818 4.625 3.861-.526-.571-2.033-1.904-3.349-2.963-1.316-1.058-1.89-1.462-1.276-.898m-258.299.634c0 .614.065.866.146.559.08-.308.08-.81 0-1.117-.081-.307-.146-.056-.146.558m.589 3.406c-.014.382-.276.76-.583.84-.524.137-.523.148.01.183.618.04 1.024-.656.763-1.308-.091-.225-.176-.097-.19.285m-3.734 1.828c-.9.419-1.753.956-1.895 1.193-.219.362-.175.362.271 0 .293-.237 1.361-.772 2.374-1.188 1.013-.417 1.627-.76 1.364-.762s-1.215.338-2.114.757m271.637 3.857c3.4 3.666 4.196 4.43 2.331 2.233-.894-1.053-2.317-2.56-3.161-3.349-.845-.79-.471-.287.83 1.116m-276.644.558c-.734.985-1.773 2.812-1.405 2.473.314-.29 2.425-3.509 2.3-3.509-.066 0-.469.466-.895 1.036m-3.354 6.473c-.534 1.173-.432 1.424.146.357.27-.498.431-.965.358-1.038s-.3.234-.504.681m287.987 2.858c.543.789 1.059 1.435 1.147 1.435s-.285-.646-.828-1.435c-.543-.79-1.06-1.436-1.147-1.436-.088 0 .285.646.828 1.436m-289.451 1.298c-.117.468-.152.912-.077.987.076.075.233-.246.35-.713.118-.468.152-.912.077-.987s-.233.246-.35.713m291.005.934c.172.351.547.925.832 1.276l.52.638-.313-.638a8 8 0 0 0-.833-1.276l-.519-.638zm5.372 9.557c.824 1.66 1.55 2.967 1.612 2.904.142-.141-2.745-5.922-2.957-5.922-.085 0 .52 1.358 1.345 3.018M32.929 246.89c0 .614.066.865.146.558s.08-.809 0-1.116-.146-.056-.146.558m301.703-.479c0 .176.205.678.456 1.117.25.439.456.654.456.478 0-.175-.206-.677-.456-1.116-.251-.439-.456-.654-.456-.479m-302.001 3.988c0 .965.06 1.359.133.877a7 7 0 0 0 0-1.754c-.073-.483-.133-.088-.133.877m-.292 7.496c0 2.105.052 2.925.114 1.821a39 39 0 0 0-.001-3.827c-.063-1.002-.114-.1-.113 2.006m36.042-.331c-.274.714.079 2.732 1.023 5.848 5.994 19.799 31.035 38.184 59.783 43.894 23.272 4.623 49.017-.574 63.571-12.832 5.893-4.963 8.054-9.564 2.963-6.308-41.197 26.354-103.251 12.179-124.748-28.495-1.26-2.383-2.194-3.143-2.592-2.107m2.108 2.007c6.619 12.818 18.866 24.322 34.1 32.032 29.298 14.827 62.553 13.912 90.176-2.482 4.109-2.439 4.59-2.308 2.217.606-12.773 15.68-43.346 22.869-70.623 16.607-28.092-6.449-51.885-24.879-56.976-44.133-1.367-5.17-.845-6.41 1.106-2.63m-37.858 5.182c0 .965.06 1.359.133.877a7 7 0 0 0 0-1.754c-.073-.483-.133-.088-.133.877m.311 3.828c0 .789.062 1.112.138.717a4.5 4.5 0 0 0 0-1.435c-.076-.395-.138-.072-.138.718m308.759 4.784c0 .614.065.865.146.558s.08-.809 0-1.116c-.081-.307-.146-.056-.146.558m.354 4.625c.001 1.404.057 1.938.125 1.188.067-.75.066-1.898-.002-2.552-.069-.653-.124-.039-.123 1.364m-.005 7.018c.002 1.228.06 1.691.129 1.03.069-.662.067-1.667-.003-2.233s-.127-.025-.126 1.203m-305.323 2.073c0 .263.124.766.275 1.117.172.402.274.461.274.159 0-.263-.124-.765-.274-1.116-.173-.402-.275-.461-.275-.16m304.98 3.031c.004.701.069.951.145.554.077-.397.074-.971-.006-1.276s-.142.02-.139.722m-300.851 8.293c0 .176.275.821.611 1.436.336.614.612.972.612.797s-.276-.821-.612-1.435-.611-.973-.611-.798m2.206 4.747c0 .343.949 2.111 1.133 2.111.088 0-.078-.466-.368-1.037-.592-1.164-.765-1.407-.765-1.074m2.074 4.025c.272.526.566.957.654.957s-.063-.431-.335-.957c-.273-.526-.567-.957-.655-.957s.063.431.336.957m289.052 10.382c-.749 1.571-.644 1.838.139.353.356-.674.591-1.282.522-1.351s-.366.38-.661.998m-281.537 1.559c.558.778 1.437 1.89 1.952 2.472s.121-.055-.875-1.415c-.997-1.359-1.875-2.472-1.952-2.472-.078 0 .316.637.875 1.415m279.566 2.413c-.272.526-.423.957-.335.957s.382-.431.654-.957.423-.957.335-.957-.382.431-.654.957m-1.276 2.233c-.272.526-.423.957-.335.957s.382-.431.654-.957.423-.957.335-.957-.382.431-.654.957m-274.163.738c0 .055.467.521 1.037 1.036l1.037.937-.937-1.036c-.873-.967-1.137-1.184-1.137-.937m271.535 3.412c-1.072 1.582-1.814 2.792-1.649 2.69.436-.27 3.973-5.564 3.717-5.564-.065 0-.996 1.293-2.068 2.874m-267.472 1.113c1.246 1.404 3.028 3.27 3.961 4.147s.414.231-1.153-1.436c-4.212-4.48-5.373-5.601-2.808-2.711m262.436 5.503c-1.032 1.184-1.544 1.866-1.138 1.515.814-.703 3.358-3.669 3.147-3.669-.073 0-.977.969-2.009 2.154m-255.175 1.674c.864.877 1.643 1.595 1.73 1.595.088 0-.547-.718-1.411-1.595s-1.643-1.595-1.73-1.595c-.088 0 .547.718 1.411 1.595m250.71 3.27-2.544 2.631 2.632-2.544c2.444-2.363 2.777-2.719 2.544-2.719-.048 0-1.232 1.184-2.632 2.632M74.801 341.76c.526.453 1.603 1.265 2.392 1.806 1.103.755 1.213.792.478.16-.526-.452-1.602-1.265-2.392-1.805-1.102-.755-1.213-.792-.478-.161m239.234 1.992c-1.777 1.653-1.798 1.687-.286.475 1.481-1.187 2.618-2.3 2.319-2.269-.066.007-.98.814-2.033 1.794m-235.247.889c0 .087 1.256.998 2.791 2.024 3.106 2.076 3.921 2.568 3.429 2.069-.501-.508-6.22-4.271-6.22-4.093m231.579 1.969c-2.046 1.6-2.341 2.004-.544.745 1.341-.94 2.446-1.932 2.098-1.884-.065.009-.765.522-1.554 1.139m-3.444 2.49c-1.482 1.048-1.69 1.347-.439.631.584-.335 1.211-.788 1.395-1.007.471-.563.25-.476-.956.376m-218.247 1.92c0 .088.431.382.957.655.526.272.957.423.957.335s-.431-.382-.957-.654c-.526-.273-.957-.423-.957-.336m214.434.532c-1.087.696-1.439 1.164-.478.636.731-.403 1.878-1.289 1.674-1.295-.087-.003-.626.294-1.196.659m-211.563 1.067c0 .087.574.452 1.276.81s1.276.579 1.276.491-.574-.452-1.276-.81-1.276-.579-1.276-.491m205.343 2.427c-.658.347-1.196.702-1.196.789s.574-.134 1.276-.492c.701-.358 1.276-.72 1.276-.804 0-.209-.003-.208-1.356.507m-197.368 1.732c.438.251.941.456 1.116.456s-.04-.205-.479-.456c-.438-.25-.94-.456-1.116-.456-.175 0 .04.206.479.456m191.387 1.276c-.439.251-.654.456-.478.456.175 0 .677-.205 1.116-.456.439-.25.654-.456.479-.456s-.678.206-1.117.456m-187.56.479c.614.336 1.26.611 1.436.611s-.184-.275-.798-.611-1.26-.612-1.435-.612.183.276.797.612m170.495 6.06c-.402.173-.461.274-.16.274.263 0 .766-.123 1.117-.274.402-.172.461-.274.159-.274-.263 0-.765.124-1.116.274m-113.956 8.195c.307.08.81.08 1.117 0 .307-.081.056-.146-.558-.146s-.866.065-.559.146m2.552.319c.307.08.81.08 1.117 0 .307-.081.055-.146-.559-.146s-.865.065-.558.146m70.02.005c.397.077.971.074 1.276-.006s-.02-.142-.722-.139c-.701.004-.951.069-.554.145m-66.99.319a4.6 4.6 0 0 0 1.436 0c.395-.076.072-.138-.718-.138s-1.112.062-.718.138m64.119 0c.397.077.971.074 1.276-.006s-.02-.142-.721-.139c-.702.004-.952.069-.555.145m-60.61.319a4.6 4.6 0 0 0 1.436 0c.394-.076.071-.138-.718-.138-.79 0-1.112.062-.718.138m57.739 0c.397.077.971.074 1.276-.006s-.02-.142-.721-.139c-.702.004-.952.069-.555.145m-54.389.322a7 7 0 0 0 1.754 0c.482-.073.088-.133-.877-.133s-1.36.06-.877.133m49.76 0a7 7 0 0 0 1.755 0c.482-.073.087-.133-.877-.133-.965 0-1.36.06-.878.133m-44.976.323c.658.069 1.735.069 2.393 0s.119-.125-1.197-.125c-1.315 0-1.854.056-1.196.125m40.357-.001c.573.071 1.434.069 1.914-.003.479-.073.01-.131-1.043-.129-1.052.001-1.444.061-.871.132m-33.809.322c.75.067 1.898.066 2.552-.002.653-.069.039-.124-1.365-.123s-1.938.057-1.187.125m27.583 0c.833.066 2.197.066 3.03 0 .834-.066.152-.119-1.515-.119s-2.348.053-1.515.119m-15.294.323c1.719.057 4.446.057 6.06-.001s.207-.105-3.126-.104c-3.334 0-4.654.047-2.934.105" fill="#ed6a04"/>
	</g>
</svg>