<svg id="padduck-logo-composite" width="1181" height="857" viewBox="0 0 1181 857" xmlns="http://www.w3.org/2000/svg" xmlns:xlink="http://www.w3.org/1999/xlink">
  <defs>
    <radialGradient id="bgGlow" cx="50%" cy="42%" r="72%">
      <stop offset="0%" stop-color="#061623"/>
      <stop offset="58%" stop-color="#030d17"/>
      <stop offset="100%" stop-color="#01070d"/>
    </radialGradient>
  </defs>
  <rect width="1181" height="857" fill="url(#bgGlow)"/>

  <svg id="arch-layer" x="205" y="8" width="770" height="302" viewBox="0 0 400 156.941" overflow="visible">
    <defs><clipPath id="a" clipPathUnits="userSpaceOnUse"><path d="M0 0h400v156.941H0Zm50.1 109a7.6 7.6 0 1 0-15.2 0 7.6 7.6 0 1 0 15.2 0m61.15-55.5a7.4 7.4 0 1 0-14.8 0 7.4 7.4 0 1 0 14.8 0m25.95 54a6 6 0 1 0-12 0 6 6 0 1 0 12 0m68.7-79.15a7.4 7.4 0 1 0-14.8 0 7.4 7.4 0 1 0 14.8 0m65.9 79.32a6 6 0 1 0-12 0 6 6 0 1 0 12 0m29.1-54.17a7.4 7.4 0 1 0-14.8 0 7.4 7.4 0 1 0 14.8 0m61.37 55.5a7.6 7.6 0 1 0-15.2 0 7.6 7.6 0 1 0 15.2 0" fill-rule="evenodd"/></clipPath></defs><g fill-rule="evenodd"><path clip-path="url(#a)" d="M195.167 14.102c-5.393 1.171-9.457 4.329-11.428 8.88-.779 1.8-.794 1.807-4.243 2.098-18.339 1.544-42.771 8.7-61.142 17.909-2.362 1.185-2.445 1.195-3.196.411-6.429-6.715-18.401-5.599-23.576 2.197-2.352 3.542-3.262 9.132-1.998 12.275.162.404-.569 1.043-3.084 2.695-12.714 8.352-26.527 20.791-35.182 31.683-2.216 2.79-2.049 2.643-2.86 2.517-6.714-1.039-10.991-.295-14.914 2.593-6.987 5.145-8.444 14.822-3.261 21.659.46.606.889 1.188.954 1.294.065.105-1.341 3.096-3.125 6.647-5.902 11.751-6.234 12.669-5 13.837 2.18 2.065 6.965 2.92 8.486 1.517.336-.311 1.201-2.035 2.498-4.981 1.037-2.356 5.711-11.712 5.991-11.99.209-.208.597-.25 1.962-.211 12.763.366 20.886-11.219 15.663-22.342-.63-1.341-.734-1.692-.591-2 .181-.393 2.767-3.761 4.046-5.271.412-.487 1.268-1.496 1.9-2.244 7.934-9.367 18.681-18.826 28.842-25.387 3.076-1.986 2.867-1.943 4.833-.994 2.649 1.279 4.347 1.653 7.213 1.587 2.337-.054 1.67-.941 5.714 7.602 1.259 2.659 3.075 6.484 4.038 8.5 4.175 8.752 6.96 14.783 6.96 15.073 0 .102-.302.785-.672 1.52-2.253 4.482-2.406 8.106-.506 12.012 4.215 8.666 16.839 9.736 22.429 1.902 6.105-8.555.41-19.566-10.283-19.881-2.225-.065-2.654-.121-2.881-.371-.279-.308-3.94-7.937-8.001-16.671-.575-1.238-2.255-4.673-3.733-7.634-3.105-6.223-2.986-5.704-1.64-7.155 2.604-2.807 3.786-5.586 3.787-8.901 0-1.957-.352-1.727 9.583-6.259 8.147-3.717 17.791-7.103 27.051-9.496 3.656-.945 4.094-1.048 9.032-2.128 3.329-.728 9.059-1.741 11-1.945 8.172-.859 7.368-.952 8.45.983 6.515 11.65 22.729 11.13 29.412-.943.371-.671 1.05-.783 3.282-.54.975.105 2.523.268 3.44.361 1.599.163 2.77.325 4.75.657.504.084 1.441.236 2.083.338 14.133 2.232 31.626 7.771 43.902 13.901 1.154.576 3.148 1.516 4.431 2.09 2.78 1.243 2.847 1.306 2.885 2.685.089 3.22 1.366 6.516 3.39 8.75 1.308 1.443 1.313 1.411-.997 5.558a569 569 0 0 0-3.775 6.928l-3.833 7.166c-1.03 1.925-2.795 5.3-3.921 7.5s-2.227 4.244-2.448 4.542l-.401.542h-1.509c-7.495 0-13.673 8.101-11.82 15.5 3.649 14.572 25.754 11.925 25.747-3.084-.002-3.207-.396-4.273-2.954-7.981-.753-1.093-1.062-.366 5.715-13.435 1.402-2.705 3.429-6.567 4.503-8.584s2.498-4.701 3.163-5.967c.664-1.265 1.39-2.516 1.612-2.779l.403-.48 1.794.095c2.634.139 5.06-.38 8.074-1.728 1.599-.715 1.345-.797 4.851 1.582 8.144 5.528 15.736 11.829 22.355 18.552 3.828 3.889 4.832 4.981 8.259 8.976 4.75 5.536 4.458 4.96 3.497 6.91-5.102 10.352 2.443 22.235 14.13 22.253 1.037.002 2.025.078 2.196.169.556.298 3.629 6.301 7.08 13.834 1.531 3.344 1.703 3.581 2.765 3.836 2.059.494 5.849-.607 7.521-2.185 1.097-1.036 1.123-.95-2.778-9.151-.981-2.062-1.844-3.825-1.917-3.917-.333-.416-3.003-6.243-3.003-6.553 0-.191.455-.857 1.011-1.48 9.635-10.796-.567-27.5-15.345-25.123-.871.14-1.853.298-2.184.349-.8.126-1.186-.109-1.888-1.153-2.488-3.697-13.529-14.973-20.936-21.38-5.148-4.453-14.06-11.092-17.881-13.321-.998-.583-1.039-.689-.793-2.068 1.978-11.068-7.215-19.765-18.508-17.509-2.854.57-4.233 1.248-6.968 3.425-1.779 1.416-1.56 1.403-3.695.218-15.55-8.627-39.617-15.739-60.313-17.823-4.086-.411-4.105-.418-4.657-1.827-2.572-6.562-11.347-10.863-18.843-9.236m6.77 2.659c8.311 1.927 12.252 11.227 7.678 18.119C202.692 45.309 186 40.716 186 28.381c0-7.7 7.924-13.479 15.937-11.62m-4.379 4.246c-7.21 1.275-9.056 10.421-2.808 13.908 7.572 4.226 15.338-4.652 9.955-11.38-1.506-1.884-4.601-2.978-7.147-2.528m-16.1 6.701c.25.314.375 3.254.146 3.433-.103.081-.712.195-1.354.253a78 78 0 0 0-4.75.607 89 89 0 0 1-2.333.335c-1.226.158-2.126.304-4.042.655-.527.097-1.352.245-1.833.33-3.386.596-12.51 2.813-16.459 3.999l-3.416 1.025c-4.375 1.311-7.223 2.312-13.417 4.715-3.238 1.257-6.635 2.758-11.545 5.102-1.405.671-1.749.606-2.354-.45a58 58 0 0 0-.724-1.228c-.443-.719-.178-.938 2.996-2.481 16.033-7.79 37.718-14.116 54.877-16.007a63 63 0 0 0 2.583-.331c1.133-.193 1.444-.185 1.625.043m36.459.04a56 56 0 0 1 2.333.254l3.75.503c17.058 2.282 34.454 7.448 50.083 14.874 5.025 2.387 4.728 2.073 3.796 4.003-.817 1.69-.885 1.702-3.176.553-15.991-8.02-35.835-13.94-53.953-16.097-.825-.098-2.008-.252-2.628-.341s-1.424-.164-1.786-.164c-.824 0-1.044-.334-.829-1.261.083-.36.154-.997.156-1.414q.007-1.274.753-1.091c.184.046.859.127 1.501.181M108.082 42.233c7.284 2.506 10.527 11.298 6.537 17.723-.355.571-1.287 1.639-2.072 2.373l-1.426 1.335 2.258 4.793c1.242 2.636 3.904 8.243 5.915 12.46 2.011 4.216 4.315 9.091 5.12 10.833 3.361 7.27 2.711 6.449 4.753 6 11.68-2.569 17.711 13.615 7.073 18.984-10.09 5.093-20.204-7.001-13.072-15.631.843-1.02.893-.715-.685-4.113-3.841-8.266-4.584-9.846-6.142-13.056-1.933-3.985-8.013-16.915-8.332-17.72-.368-.932-.462-.956-2.808-.722-11.154 1.117-17.584-12.189-9.806-20.293 2.998-3.124 8.493-4.409 12.687-2.966m189.362-.007c6.163 2.021 9.681 8.913 7.672 15.028-1.936 5.89-8.172 9.43-14.222 8.074-1.115-.25-.833-.714-8.852 14.589-.96 1.833-2.443 4.646-3.295 6.25-2.327 4.383-6.58 12.685-6.58 12.844 0 .077.506.65 1.125 1.273 8.45 8.51-1.495 21.613-12.421 16.365-9.82-4.717-5.677-19.323 5.426-19.127 2.257.04 1.721.595 4.376-4.522 2.843-5.48 8.171-15.557 9.077-17.167.387-.687 1.399-2.562 2.25-4.166s2.137-4.018 2.857-5.363c1.548-2.891 1.53-2.755.483-3.632-6.451-5.401-5.049-16.199 2.575-19.838 2.736-1.305 6.641-1.555 9.529-.608m-194.637 4.023C93.902 47.748 95.031 61 104.065 61c9.059 0 10.372-12.47 1.552-14.75-1.11-.287-1.11-.287-2.81-.001m189.276.02c-7.852 1.548-8.246 12.116-.537 14.411 7.19 2.142 12.624-6.781 7.458-12.244-1.224-1.294-4.192-2.578-5.587-2.416-.092.01-.692.122-1.334.249M91.076 62.748c1.238 1.411 1.248 1.39-1.547 3.288-11.112 7.544-22.06 17.521-31.141 28.381-2.147 2.566-2.117 2.555-3.806 1.415-1.647-1.111-1.643-1.074-.317-2.787 4.964-6.416 13.394-14.746 21.985-21.725 4.733-3.844 12.914-9.649 13.605-9.652.149-.001.698.485 1.221 1.08m219.345.467c11.304 7.516 22.175 17.14 31.476 27.868 2.981 3.439 2.988 3.465 1.222 4.836-1.563 1.215-1.424 1.273-3.874-1.627-8.534-10.101-18.095-18.893-28.801-26.484-5.405-3.832-4.986-3.268-3.682-4.946 1.145-1.473.872-1.499 3.659.353M44.917 97.08c5.508.793 9.402 4.001 10.832 8.92 3.235 11.135-10.056 20.243-19.916 13.648-9.791-6.548-6.338-20.715 5.498-22.561 1.834-.286 1.654-.286 3.586-.007m312.149.093c7.1 1.026 12.137 8.171 10.454 14.826-2.562 10.133-16.252 13.219-22.795 5.138-7.476-9.231.241-21.713 12.341-19.964m-315.649 4.446c-2.638.636-4.533 1.972-5.497 3.875-3.53 6.966 3.818 14.018 10.879 10.44 5.198-2.634 5.215-10.742.028-13.354-1.737-.875-4.058-1.287-5.41-.961m311.316.196c-4.109 1.176-6.612 5.462-5.467 9.363 2.413 8.225 14.98 7.204 15.523-1.261a7.867 7.867 0 0 0-10.056-8.102m-222.916.01c-3.61.66-5.679 5.007-4.002 8.413 2.143 4.353 8.709 4.562 10.891.345 2.442-4.718-1.509-9.741-6.889-8.758m134.742.005c-4.45.943-6.253 6.446-3.199 9.764 4.591 4.989 12.67.178 10.307-6.137-.993-2.656-4.131-4.257-7.108-3.627M35.072 124.099c.89.422 1.654.863 1.7.981.045.118-.888 2.154-2.074 4.526a389 389 0 0 0-3.445 7.061c-1.715 3.66-1.683 3.633-3.548 3.079-2.616-.777-2.65-.625 2.479-11.038 3.031-6.153 2.562-5.711 4.888-4.609m329.222-.141c1.183 1.715 6.873 13.597 6.873 14.355 0 .461-.674.983-1.743 1.351-1.998.688-2.06.636-3.929-3.331a433 433 0 0 0-3.275-6.735c-1.046-2.1-1.878-3.937-1.85-4.083.048-.249 2.982-1.97 3.41-2.001.109-.008.34.192.514.444" fill="#131416"/><path d="M195.567 17.325c-10.767 2.868-12.248 16.674-2.317 21.596 12.044 5.969 23.741-8.989 14.354-18.355-3.044-3.037-7.897-4.343-12.037-3.241m4.964 3.262c6.32 1.316 8.672 8.904 4.158 13.417-5.211 5.21-14.189 1.78-14.189-5.421 0-5.291 4.768-9.092 10.031-7.996M41.583 97.616c-6.26.826-10.903 5.817-10.913 11.732-.02 10.93 13.654 16.05 21.589 8.083 7.992-8.024.822-21.332-10.676-19.815m3.179 3.643c4.282.993 6.506 3.886 6.38 8.297-.245 8.525-11.989 10.929-15.779 3.229-3.091-6.279 2.494-13.128 9.399-11.526m308.303-3.593c-10.96 1.528-14.543 14.432-5.862 21.112 7.676 5.907 19.58.605 20.086-8.945.384-7.243-6.613-13.228-14.224-12.167m4.304 3.665c4.189 1.294 6.777 5.697 5.796 9.86-1.917 8.126-14.027 8.24-16.399.154-1.772-6.04 4.449-11.915 10.603-10.014" fill="#f9c651"/><path d="M194.75 13.569c-5.583 1.332-9.34 4.305-11.587 9.168l-.64 1.386-1.268.188c-.698.104-1.629.189-2.069.189-1.529 0-5.698.557-10.644 1.422-4.127.721-11.638 2.399-15.292 3.416-14.937 4.157-27.333 8.802-35.75 13.396-1.374.751-1.355.752-2.385-.202-4.631-4.293-11.191-5.367-17.337-2.841-6.52 2.68-10.529 10.327-9.055 17.273.272 1.28.334 1.194-1.83 2.584-9.05 5.813-21.005 15.756-28.318 23.55-3.813 4.065-5.05 5.48-9.204 10.538l-.454.553-1.967-.261c-6.734-.895-11.681.567-15.691 4.636-5.795 5.882-6.343 14.457-1.343 21.007.787 1.031.982.467-2.726 7.888-5.381 10.769-5.821 11.92-5.038 13.163 1.233 1.956 5.6 3.489 8.2 2.878 1.83-.431 1.945-.572 3.66-4.5 1.262-2.89 6.074-12.628 6.445-13.042.222-.248.574-.292 2.36-.294 12.954-.019 20.949-12.115 15.392-23.287l-.6-1.207.62-.877c3.447-4.873 10.703-12.92 16.021-17.766 6.531-5.952 11.956-10.234 17.521-13.828 3.348-2.162 2.875-2.066 5.133-1.045 2.429 1.098 4.486 1.543 6.892 1.491.942-.02 1.781.033 1.865.117.27.272 10.993 22.858 13.624 28.696l.769 1.707-.937 1.96c-4.441 9.282 1.874 19.365 12.133 19.373 13.963.012 18.918-17.564 6.978-24.754-2.229-1.343-3.867-1.666-8.826-1.741-.099-.002-.565-.772-1.034-1.711-1.223-2.446-4.484-9.333-5.071-10.709-.274-.641-2.253-4.724-4.398-9.073S115 65.006 115 64.888s.474-.723 1.054-1.343c2.493-2.667 3.779-5.785 3.779-9.159v-1.245l3.542-1.712c12.811-6.196 25.608-10.722 38.042-13.456a650 650 0 0 1 6.166-1.316c1.845-.38 6.748-1.202 8-1.342 2.348-.262 4.629-.485 6.022-.59l1.354-.103.717 1.231c6.67 11.462 23.137 11.774 29.701.564 1.147-1.959 1.144-1.958 4.198-1.588.738.09 2.092.243 3.008.342 1.626.174 2.887.35 4.75.662.505.085 1.442.237 2.084.339 1.039.164 4.559.834 7.083 1.347 8.234 1.676 19.77 5.24 27.333 8.446.871.369 2.596 1.096 3.834 1.616 1.859.78 6.544 2.972 11.166 5.223l.917.446.117 1.5c.238 3.056 1.522 6.302 3.295 8.333 1.253 1.434 1.256 1.389-.354 4.231-2.429 4.284-7.239 13.275-11.559 21.603l-2.853 5.5-1.659.101c-14.063.861-17.162 20.801-3.976 25.587 12.897 4.682 24.219-9.464 16.155-20.185-.978-1.301-.984-1.261.687-4.528 2.238-4.377 6.526-12.666 7.314-14.142.392-.733 1.967-3.696 3.502-6.583s2.86-5.34 2.947-5.449c.113-.142.647-.17 1.883-.1 2.416.137 5.004-.421 7.967-1.716 1.632-.714 1.237-.807 3.728.88 13.154 8.907 23.837 18.725 34.181 31.414 1.233 1.513 1.202 1.267.382 2.996-5.115 10.78 2.788 22.958 14.91 22.977.916.002 1.746.058 1.843.125.411.286 3.639 6.668 6.3 12.456 1.887 4.105 2.102 4.484 2.788 4.901 2.136 1.299 8.354-.54 9.536-2.821.587-1.134.5-1.36-4.427-11.497-2.501-5.143-3.624-7.522-3.624-7.673 0-.083.488-.756 1.084-1.494 9.648-11.95-1.411-28.727-16.973-25.749-1.664.318-1.896.314-2.181-.042-10.14-12.65-23.917-25.19-37.697-34.312l-2.43-1.609.106-.602c1.853-10.517-5.039-18.877-15.575-18.894-4.702-.008-7.232.874-10.805 3.765l-1.387 1.124-1.363-.74c-8.833-4.798-21.999-9.957-32.179-12.612-7.443-1.941-10.511-2.647-15.1-3.475l-3.75-.679c-2.679-.485-6.13-.927-10.5-1.344-3.212-.307-2.983-.214-3.504-1.439-3.012-7.087-11.957-11.367-19.829-9.489m8.333.368c4.878 1.186 9.698 5.158 11.271 9.288.471 1.235.358 1.195 4.563 1.615 14.586 1.457 32.051 5.676 44.833 10.831 1.65.666 3.45 1.379 4 1.586 1.872.703 7.565 3.37 10.265 4.809 3.196 1.703 2.89 1.67 4.375.469 6.437-5.207 14.91-5.304 21.192-.244 3.882 3.128 6.112 9.723 4.937 14.603-.268 1.113-.19 1.251 1.189 2.097 6.118 3.753 14.108 9.969 21.792 16.951 5.02 4.563 14.764 14.835 16.51 17.406.672.989 1.193 1.304 1.781 1.074 4.016-1.568 11.459-.104 15.553 3.06 7.084 5.473 7.838 16.881 1.519 22.983-.526.508-.515.541 1.541 4.747 6.892 14.102 6.909 14.146 6.095 15.29-1.106 1.553-5.044 2.994-7.617 2.787-1.773-.142-1.869-.266-4.308-5.6-1.557-3.405-5.513-11.353-5.9-11.856-.308-.398-.403-.417-2.206-.435-12.188-.124-19.808-12.032-14.625-22.853.361-.754.657-1.423.657-1.485 0-.198-4.105-5.064-7.571-8.974-1.96-2.213-8.55-8.835-10.636-10.689-2.207-1.962-3.175-2.755-9.626-7.888A67 67 0 0 0 311 72.238c-7.425-5.46-8.216-5.886-9.631-5.178-2.572 1.288-6.56 2.102-8.654 1.768-1.398-.224-1.37-.25-2.971 2.783-.621 1.177-2.009 3.789-3.085 5.806-2.219 4.157-5.527 10.516-8.699 16.718-2.367 4.628-2.332 4.489-1.413 5.71 4.237 5.635 3.719 12.542-1.284 17.114-8.75 7.997-22.742 2.457-22.76-9.01-.011-6.903 5.799-13.1 12.311-13.131 1.838-.009 1.488.388 4.022-4.568 1.125-2.2 2.907-5.613 3.96-7.583 4.406-8.248 5.85-10.927 7.636-14.167 2.383-4.323 2.323-4.059 1.203-5.277-1.915-2.084-3.126-4.976-3.508-8.377l-.21-1.872-2.834-1.294a165 165 0 0 1-4.5-2.133c-5.968-3.009-18.398-7.745-25.275-9.631-6.183-1.695-13.356-3.303-18.141-4.067L224 35.346a78 78 0 0 0-3.917-.508 234 234 0 0 1-3.378-.353c-2.154-.246-2.405-.165-3.052.984-6.672 11.851-23.205 11.937-29.808.155-.732-1.307-.9-1.376-2.835-1.154-.876.101-2.456.265-3.51.365a52 52 0 0 0-4.917.676c-.458.084-1.583.272-2.5.416-.916.145-2.004.338-2.416.43-.413.091-1.8.392-3.084.668-4.021.866-4.916 1.075-8.083 1.882-11.559 2.945-21.317 6.571-34.103 12.673-2.85 1.36-2.897 1.409-2.897 3.045 0 3.281-1.214 6.173-3.701 8.819-1.298 1.381-1.39 1.019 2.015 7.926a743 743 0 0 1 4.312 8.88c3.253 6.918 5.027 10.641 5.957 12.5l1 2 2.667.098c13.867.51 18.039 18.532 5.669 24.491-11.863 5.715-23.688-5.983-18.002-17.808l.919-1.912-1.654-3.601a771 771 0 0 0-3.476-7.435c-1.001-2.108-3.418-7.208-5.371-11.333-4.33-9.146-3.909-8.484-5.319-8.368-2.498.204-5.13-.336-7.739-1.588l-1.806-.868-.693.399c-3.314 1.907-10.224 6.876-14.023 10.085-6.941 5.86-11.982 10.806-16.85 16.532L61.5 95.686c-1.837 2.168-3.998 5.094-3.999 5.416 0 .193.296.987.66 1.762 5.177 11.048-3.125 22.862-15.893 22.616-1.618-.031-1.842 0-2.054.284-.31.417-5.151 10.235-5.95 12.069-1.312 3.013-2.243 4.766-2.629 4.953-2.445 1.184-6.567.384-8.738-1.696l-.77-.738.07-1.051c.086-1.295.974-3.287 5.496-12.329 3.647-7.291 3.346-6.281 2.298-7.727-7.382-10.185-1.26-23.707 11.438-25.264 1.589-.195 5.813.068 7.167.446.402.112.496.02 2.383-2.344 5.326-6.671 12.894-14.3 20.688-20.855 4.469-3.758 12.669-9.856 15.856-11.791 1.788-1.085 1.75-1.011 1.419-2.736-1.3-6.786 2.282-13.695 8.616-16.622 5.867-2.711 13.496-1.512 17.525 2.754.892.944.734.978 4.94-1.067 18.22-8.858 41.74-15.555 60.06-17.103 2.568-.217 2.637-.254 3.267-1.731 2.006-4.701 5.843-7.707 11.733-9.193 1.88-.475 5.614-.382 8 .198M195.5 17.18c-5.581 1.419-9.528 6.595-9.096 11.926.258 3.173 1.891 6.497 3.959 8.057l.72.543-.775-.728c-4.557-4.28-4.997-11.361-.984-15.841 6.31-7.042 17.901-4.885 21.202 3.946.179.48.274.622.222.334-1.014-5.696-8.769-9.885-15.248-8.237m3.044 3.273c.253.038.628.037.833-.002.205-.04-.002-.071-.46-.07-.459.001-.626.034-.373.072m-3.969 1.033c-.463.265-.949.621-1.08.79-.229.295-.225.296.101.018.188-.159.749-.514 1.248-.788.498-.275.831-.501.739-.501-.091-.001-.545.215-1.008.481m7.439-.424c.171.154 1.153.605 1.153.53 0-.096-.924-.592-1.103-.592-.066 0-.088.028-.05.062m2.569 1.771c.452.459.859.834.904.834s-.286-.375-.737-.834-.858-.833-.904-.833.286.375.737.833m6.284 3.584c0 .183.06.521.133.75.106.33.133.347.133.083 0-.183-.06-.521-.133-.75-.106-.33-.133-.347-.133-.083M190.534 28.5c-.006.962.043 1.887.109 2.054s.095-.471.064-1.417c-.078-2.408-.16-2.71-.173-.637m-10.617-.398c-.275.032-1.25.137-2.167.234-.917.096-2.117.243-2.667.326-.55.082-1.6.233-2.333.335-1.403.194-2.104.316-4.417.769a133 133 0 0 1-2.166.406c-3.477.594-8.407 1.743-13.917 3.243-1.494.406-5.285 1.545-7.5 2.253-1.192.38-2.767.882-3.5 1.113-1.528.483-4.861 1.696-7.974 2.901-4.594 1.778-13.609 5.948-13.609 6.294 0 .359 1.244 2.191 1.488 2.191.149 0 .831-.27 1.516-.6 9.877-4.758 20.81-8.808 31.204-11.559 2.725-.721 3.768-.984 5.542-1.397 5.829-1.36 9.352-2.039 14.416-2.782.688-.101 1.663-.249 2.167-.33 1.493-.238 3.695-.505 4.5-.545l.75-.037V29.5c0-1.571.014-1.556-1.333-1.398m36.19.03c-.039.065-.098.718-.131 1.451l-.059 1.334 1.166.106c1.639.15 4.089.438 7.584.891.412.054 1.125.166 1.583.249.458.084 1.396.24 2.083.347 1.13.177 4.523.832 6 1.158.321.071 1.371.289 2.334.484 11.21 2.273 27.262 7.89 38.205 13.369.892.447 1.72.812 1.839.812.219 0 1.289-1.985 1.289-2.39 0-.62-14.237-6.84-20.417-8.919-7.215-2.429-15.992-4.915-20.618-5.841l-2.048-.414c-.734-.149-1.784-.351-2.334-.449s-1.375-.25-1.833-.338a252 252 0 0 0-3.51-.636c-.556-.099-1.254-.179-1.551-.179-.298 0-.856-.07-1.24-.155-.385-.084-1.374-.238-2.199-.341s-2.025-.256-2.667-.34c-1.828-.239-3.398-.329-3.476-.199m-24.477 4.622c.096.186.486.674.865 1.084.674.728.672.722-.091-.255-.933-1.194-1.002-1.267-.774-.829m12.945 1.288-.658.708.708-.659c.39-.362.708-.681.708-.708 0-.126-.145 0-.758.659m4.476.665c-.477.726-.764 1.234-.639 1.13.287-.238 1.656-2.329 1.569-2.398-.035-.028-.454.543-.93 1.268m-14.718.541c0 .114 1.021.62 1.097.544.036-.036-.196-.19-.515-.343-.32-.152-.582-.243-.582-.201m6.834.76c-.413.169-.638.309-.5.312.137.002.55-.137.916-.311.852-.403.567-.403-.416-.001m6.083.927a15 15 0 0 1-1.792 1.349c-1.012.63-1.275.889-.493.484.634-.328 2.36-1.639 2.856-2.169.61-.653.361-.507-.571.336m-15.971.912c.207.25 1.221.888 1.221.768 0-.039-.319-.281-.708-.538-.39-.257-.621-.361-.513-.23m1.388.901c0 .114 1.02.62 1.096.544.037-.036-.195-.19-.515-.343-.32-.152-.581-.243-.581-.201m5.208 1.542c.527.033 1.39.033 1.917 0s.095-.06-.959-.06-1.485.027-.958.06m-95.292 1.869c-6.82.713-11.625 7.563-9.914 14.136 1.568 6.026 7.171 9.687 13.299 8.69 1.28-.208 1.851-.065 2.152.538.109.217.997 2.119 1.974 4.227a1175 1175 0 0 0 7.824 16.5c.892 1.833 1.868 3.896 2.169 4.583s1.342 2.934 2.314 4.992c2.005 4.248 2.038 4.413 1.12 5.503-3.871 4.591-2.446 12.257 2.769 14.9 8.322 4.217 17.629-3.313 14.537-11.761-1.796-4.906-6.653-7.38-12.164-6.196-1.69.363-1.346.776-3.831-4.604-3.543-7.674-4.077-8.813-6.29-13.417a2351 2351 0 0 1-3.785-7.917c-.893-1.879-2.181-4.584-2.863-6.012-1.357-2.841-1.363-2.9-.365-3.591 4.23-2.932 5.652-9.235 3.187-14.132-2.347-4.662-6.753-7-12.133-6.439m189.167-.055-1.25.249c-8.786 1.754-11.849 12.847-5.375 19.466.848.867 1.542 1.667 1.542 1.777 0 .23-2.155 4.313-7.206 13.654-1.14 2.108-3.896 7.321-6.125 11.583s-4.211 8.05-4.405 8.417l-.353.667-2.581.092c-6.322.227-10.08 3.92-10.08 9.908v2.333l.711 1.48c4.013 8.353 16.796 7.124 19.108-1.837.868-3.366-.078-6.487-2.857-9.424-1.145-1.211-1.202-1.307-1.034-1.75.379-.999 7.494-14.69 12.412-23.886a1988 1988 0 0 0 3.271-6.152c2.178-4.115 2.053-3.987 3.633-3.716 11.125 1.907 18.391-10.166 11.371-18.894-2.256-2.806-7.284-4.656-10.782-3.967m-185.344 3.981c3.709 1.211 5.511 3.636 5.511 7.415 0 9.358-13.097 10.834-15.524 1.75-1.521-5.694 4.306-11.028 10.013-9.165m188.891-.167c5.995 1.414 8.197 8.658 3.953 13.002-4.507 4.613-12.233 2.312-13.533-4.03-1.123-5.476 4.012-10.284 9.58-8.972M86.917 63.964c-5.086 3.413-11.742 8.624-16.601 12.995C64.628 82.078 63.235 83.47 58.264 89c-1.622 1.805-4.131 4.85-4.484 5.445-.137.229 1.921 1.727 2.353 1.712.156-.006.959-.844 1.784-1.862 8.135-10.04 21.075-21.804 31.783-28.896 2.017-1.335 1.969-1.235 1.105-2.314-.934-1.168-.789-1.201-3.888.879m220.75-1.669c0 .07-.3.491-.667.935-.86 1.04-.857 1.053.45 1.937 12.231 8.274 23.359 18.294 32.531 29.291 1.824 2.187 1.574 2.1 2.939 1.027 1.241-.975 1.189-.862.712-1.543-2.493-3.566-11.365-12.794-17.107-17.792-7.362-6.409-18.858-14.855-18.858-13.855M41.083 97.489c-7.308 1.192-12.279 8.592-10.179 15.152.4 1.25.454 1.007.088-.391-2.173-8.286 5.529-16.028 14.425-14.5 11.838 2.034 14.022 16.689 3.317 22.259-.724.377-1.13.635-.901.572 4.422-1.212 7.922-6.189 7.911-11.248-.017-7.597-6.85-13.118-14.661-11.844m311.662.007c-5.428.771-10.121 5.462-10.487 10.48l-.08 1.107.223-1.34c2.445-14.655 25.56-12.637 24.897 2.174-.041.916-.019 1.479.047 1.25.466-1.597-.076-4.83-1.172-6.991-2.457-4.851-7.756-7.486-13.428-6.68m-310.616 3.626c.392.035.992.035 1.334-.001.341-.036.02-.064-.713-.064-.733.001-1.013.03-.621.065m312.079.001c.436.034 1.148.034 1.584 0 .435-.035.079-.063-.792-.063s-1.227.028-.792.063m-219.986.822c5.485 2.779 4.503 10.579-1.51 11.99-3.24.76-6.852-1.41-7.708-4.631-1.405-5.286 4.308-9.847 9.218-7.359m132.888-.55c7.169 1.367 7.114 11.212-.071 12.612-2.689.525-5.677-.996-6.947-3.535-1.91-3.818.48-8.408 4.748-9.116.501-.083.947-.159.993-.17.046-.01.621.083 1.277.209m84.015.45c-.344.181-.625.367-.625.412 0 .075 1.316-.541 1.486-.694.192-.174-.309-.01-.861.282m9.732 1.743c.511.553 1.055 1.247 1.207 1.542s.318.537.368.537c.255 0-.764-1.421-1.575-2.196l-.93-.888zm-324.19-.005c-.405.413-.699.75-.653.75s.414-.337.819-.75c.405-.412.699-.75.653-.75s-.414.338-.819.75m311.942.238c-.518.543-.942 1.043-.942 1.111s.022.092.05.054c.027-.038.489-.538 1.025-1.111.537-.573.938-1.042.892-1.042s-.507.445-1.025.988m-299.522-.113c.357.436.677.792.71.792.119 0-.605-.926-.978-1.25-.211-.183-.09.023.268.458m298.155 1.974c-.147.284-.237.545-.201.581.036.037.191-.195.343-.515.343-.719.224-.774-.142-.066m-312.684 3.485c0 .779.029 1.098.064.708a9.6 9.6 0 0 0 0-1.417c-.035-.389-.064-.07-.064.709m307.706 1.5c.09.936.548 2.743.665 2.626.036-.036-.013-.323-.108-.637a26 26 0 0 1-.409-1.739c-.223-1.101-.231-1.115-.148-.25M34.687 111c-.003.138.098.475.224.75.294.644.299.344.006-.417-.124-.32-.227-.471-.23-.333m332.115 1.624c-.154.524-.256.978-.225 1.008.089.09.623-1.617.562-1.798-.031-.09-.182.265-.337.79m-19.802-.56c0 .179.496 1.103.592 1.103.046 0-.041-.244-.192-.542-.31-.608-.4-.735-.4-.561m-3.996 1.496c-.008.283 1.03 2.076 1.52 2.627l.5.563-.443-.618c-.244-.34-.697-1.09-1.008-1.666-.311-.577-.567-.985-.569-.906m-311.671.168c0 .18.829 1.772.923 1.772.045 0-.115-.394-.357-.875-.464-.926-.566-1.086-.566-.897m17.577 1.147-.827.875.875-.827c.482-.455.875-.849.875-.875 0-.124-.154.014-.923.827m-11.953.136c.389.412.951.881 1.25 1.043.525.284.529.284.126-.005a21 21 0 0 1-1.25-1.042l-.833-.745zm311.876-.094c.311.32.603.583.649.583s-.171-.263-.482-.583c-.311-.321-.603-.584-.649-.584s.171.263.482.584m12.158.041-.574.625.625-.574c.581-.535.701-.676.574-.676-.028 0-.309.282-.625.625m4.205.917c-.397.591-.501.813-.24.513.455-.523 1.12-1.555 1.002-1.555-.034 0-.376.469-.762 1.042m-15.439-.197c.121.196 1.574 1.049 1.648.967.031-.034-.348-.299-.843-.59-.494-.291-.856-.46-.805-.377m10.318-.019c-.087.087-.571.385-1.075.663s-.842.506-.75.507c.229.002 1.868-.949 1.998-1.159.132-.214.036-.22-.173-.011M45.5 116.917c-.321.123-.471.227-.333.229s.475-.097.75-.223c.643-.295.344-.299-.417-.006m-11.75.583c.358.367.688.667.734.667s-.209-.3-.567-.667-.689-.667-.735-.667c-.045 0 .21.3.568.667m311.984.12c.45.474 1.162 1.095 1.584 1.381.663.451.687.458.182.051a44 44 0 0 1-1.583-1.38l-1-.912zm11.516-.62c-.21.09-.241.143-.083.143.137 0 .4-.064.583-.143.21-.09.241-.143.083-.143-.137 0-.4.064-.583.143m-315.789.287c.3.038.75.037 1-.001.251-.038.006-.069-.544-.068s-.755.032-.456.069m2.25-.001c.253.039.628.038.833-.002s-.002-.071-.461-.07c-.458.002-.626.034-.372.072m310.503.004c.531.033 1.356.033 1.834-.001.478-.033.044-.06-.965-.06s-1.399.028-.869.061m-319.306 1.196c.125.202 1.592 1.236 1.592 1.121 0-.042-.383-.351-.851-.687s-.801-.532-.741-.434m327.181.367c-.875.658-.957.767-.286.381.473-.271 1.217-.923 1.014-.889-.037.006-.364.235-.728.508m-13.922.729c0 .113 1.687.953 1.762.878.034-.034-.349-.263-.85-.509-.502-.246-.912-.412-.912-.369M46.8 120.756c-.05.049-.568.193-1.153.32-.624.135-.857.232-.564.234.532.003 2.517-.597 2.07-.626-.145-.01-.304.023-.353.072m309.7.411c-.57.12-.572.123-.083.133.275.005.65-.055.833-.133.401-.173.068-.173-.75 0m-3.792.115c.161.041.423.041.584 0 .16-.042.029-.077-.292-.077s-.452.035-.292.077M33.034 123.89c-.361.469-5.876 11.968-6.546 13.649-.394.988-.171 1.262 1.472 1.809 1.396.464 1.308.56 3.175-3.431a309 309 0 0 1 3.358-6.89c1.032-2.048 1.812-3.783 1.734-3.855-.451-.413-3.056-1.46-3.193-1.282m329.225.846c-1.691.909-1.712.533.249 4.458a403 403 0 0 1 3.269 6.723c1.959 4.145 1.764 3.981 3.849 3.214 1.596-.587 1.801.079-3.054-9.917-1.943-4.001-2.621-5.228-2.875-5.202-.063.006-.71.332-1.438.724" fill="#c8cdcf"/><path d="M197 13.498c-1.539.124-1.728.163-3.83.785-4.368 1.291-8.073 4.555-9.82 8.649-.63 1.477-.699 1.514-3.267 1.731-18.32 1.548-41.84 8.245-60.06 17.103-4.206 2.045-4.048 2.011-4.94 1.067-4.029-4.266-11.658-5.465-17.525-2.754-6.334 2.927-9.916 9.836-8.616 16.622.331 1.725.369 1.651-1.419 2.736-3.187 1.935-11.387 8.033-15.856 11.791-7.794 6.555-15.362 14.184-20.688 20.855-1.887 2.364-1.981 2.456-2.383 2.344-1.354-.378-5.578-.641-7.167-.446-12.698 1.557-18.82 15.079-11.438 25.264 1.048 1.446 1.349.436-2.298 7.727-4.522 9.042-5.41 11.034-5.496 12.329l-.07 1.051.77.738c2.171 2.08 6.293 2.88 8.738 1.696.386-.187 1.317-1.94 2.629-4.953.799-1.834 5.64-11.652 5.95-12.069.212-.284.436-.315 2.054-.284 12.768.246 21.07-11.568 15.893-22.616-.364-.775-.66-1.569-.66-1.762.001-.322 2.162-3.248 3.999-5.416l1.905-2.244c4.868-5.726 9.909-10.672 16.85-16.532 3.799-3.209 10.709-8.178 14.023-10.085l.693-.399 1.806.868c2.609 1.252 5.241 1.792 7.739 1.588 1.41-.116.989-.778 5.319 8.368 1.953 4.125 4.37 9.225 5.371 11.333a771 771 0 0 1 3.476 7.435l1.654 3.601-.919 1.912c-5.686 11.825 6.139 23.523 18.002 17.808 12.37-5.959 8.198-23.981-5.669-24.491l-2.667-.098-1-2c-.93-1.859-2.704-5.582-5.957-12.5a743 743 0 0 0-4.312-8.88c-3.405-6.907-3.313-6.545-2.015-7.926 2.487-2.646 3.701-5.538 3.701-8.819 0-1.636.047-1.685 2.897-3.045 12.786-6.102 22.544-9.728 34.103-12.673 3.167-.807 4.062-1.016 8.083-1.882 1.284-.276 2.671-.577 3.084-.668.412-.092 1.5-.285 2.416-.43.917-.144 2.042-.332 2.5-.416a52 52 0 0 1 4.917-.676c1.054-.1 2.634-.264 3.51-.365 1.935-.222 2.103-.153 2.835 1.154 6.603 11.782 23.136 11.696 29.808-.155.647-1.149.898-1.23 3.052-.984.85.097 2.37.256 3.378.353s2.771.326 3.917.508l3.167.503c4.785.764 11.958 2.372 18.141 4.067 6.877 1.886 19.307 6.622 25.275 9.631.917.462 2.942 1.422 4.5 2.133l2.834 1.294.21 1.872c.382 3.401 1.593 6.293 3.508 8.377 1.12 1.218 1.18.954-1.203 5.277-1.786 3.24-3.23 5.919-7.636 14.167a572 572 0 0 0-3.96 7.583c-2.534 4.956-2.184 4.559-4.022 4.568-6.512.031-12.322 6.228-12.311 13.131.018 11.467 14.01 17.007 22.76 9.01 5.003-4.572 5.521-11.479 1.284-17.114-.919-1.221-.954-1.082 1.413-5.71 3.172-6.202 6.48-12.561 8.699-16.718 1.076-2.017 2.464-4.629 3.085-5.806 1.601-3.033 1.573-3.007 2.971-2.783 2.094.334 6.082-.48 8.654-1.768 1.33-.665 2.263-.206 7.798 3.834 2.071 1.513 2.786 2.047 3.5 2.615 6.451 5.133 7.419 5.926 9.626 7.888 2.086 1.854 8.676 8.476 10.636 10.689 3.466 3.91 7.571 8.776 7.571 8.974 0 .062-.296.731-.657 1.485-5.183 10.821 2.437 22.729 14.625 22.853 1.803.018 1.898.037 2.206.435.387.503 4.343 8.451 5.9 11.856 2.439 5.334 2.535 5.458 4.308 5.6 2.573.207 6.511-1.234 7.617-2.787.814-1.144.797-1.188-6.095-15.29-2.056-4.206-2.067-4.239-1.541-4.747 6.319-6.102 5.565-17.51-1.519-22.983-4.094-3.164-11.537-4.628-15.553-3.06-.588.23-1.109-.085-1.781-1.074-1.746-2.571-11.49-12.843-16.51-17.406-7.684-6.982-15.674-13.198-21.792-16.951-1.379-.846-1.457-.984-1.189-2.097 1.175-4.88-1.055-11.475-4.937-14.603-6.282-5.06-14.755-4.963-21.192.244-1.485 1.201-1.179 1.234-4.375-.469-2.7-1.439-8.393-4.106-10.265-4.809-.55-.207-2.35-.92-4-1.586-12.782-5.155-30.247-9.374-44.833-10.831-4.205-.42-4.092-.38-4.563-1.615-2.341-6.147-9.815-10.337-17.354-9.727m5.917.754c4.84 1.203 9.499 5.019 11.093 9.086.552 1.409.571 1.416 4.657 1.827 20.696 2.084 44.763 9.196 60.313 17.823 2.135 1.185 1.916 1.198 3.695-.218 2.735-2.177 4.114-2.855 6.968-3.425 11.293-2.256 20.486 6.441 18.508 17.509-.246 1.379-.205 1.485.793 2.068 3.821 2.229 12.733 8.868 17.881 13.321 7.407 6.407 18.448 17.683 20.936 21.38.702 1.044 1.088 1.279 1.888 1.153.331-.051 1.313-.209 2.184-.349 14.778-2.377 24.98 14.327 15.345 25.123-.556.623-1.011 1.289-1.011 1.48 0 .31 2.67 6.137 3.003 6.553.073.092.936 1.855 1.917 3.917 3.901 8.201 3.875 8.115 2.778 9.151-1.672 1.578-5.462 2.679-7.521 2.185-1.062-.255-1.234-.492-2.765-3.836-3.451-7.533-6.524-13.536-7.08-13.834-.171-.091-1.159-.167-2.196-.169-11.687-.018-19.232-11.901-14.13-22.253.961-1.95 1.253-1.374-3.497-6.91-9.499-11.074-19.128-19.731-30.614-27.528-3.506-2.379-3.252-2.297-4.851-1.582-3.014 1.348-5.44 1.867-8.074 1.728l-1.794-.095-.403.48c-.222.263-.948 1.514-1.612 2.779-.665 1.266-2.088 3.951-3.163 5.967a1071 1071 0 0 0-4.503 8.584c-6.777 13.069-6.468 12.342-5.715 13.435 2.558 3.708 2.952 4.774 2.954 7.981.007 15.009-22.098 17.656-25.747 3.084-1.853-7.399 4.325-15.5 11.82-15.5h1.509l.401-.542c.221-.298 1.322-2.342 2.448-4.542s2.891-5.575 3.921-7.5l3.833-7.166a569 569 0 0 1 3.775-6.928c2.31-4.147 2.305-4.115.997-5.558-2.024-2.234-3.301-5.53-3.39-8.75-.038-1.379-.105-1.442-2.885-2.685a141 141 0 0 1-4.431-2.09c-12.276-6.13-29.769-11.669-43.902-13.901-.642-.102-1.579-.254-2.083-.338-1.98-.332-3.151-.494-4.75-.657-.917-.093-2.465-.256-3.44-.361-2.232-.243-2.911-.131-3.282.54-3.407 6.156-8.557 9.311-15.197 9.311-5.909 0-11.315-3.182-14.215-8.368-1.082-1.935-.278-1.842-8.45-.983-1.941.204-7.671 1.217-11 1.945-4.938 1.08-5.376 1.183-9.032 2.128-9.26 2.393-18.904 5.779-27.051 9.496-9.935 4.532-9.583 4.302-9.583 6.259-.001 3.315-1.183 6.094-3.787 8.901-1.346 1.451-1.465.932 1.64 7.155 1.478 2.961 3.158 6.396 3.733 7.634 4.061 8.734 7.722 16.363 8.001 16.671.227.25.656.306 2.881.371 10.693.315 16.388 11.326 10.283 19.881-5.59 7.834-18.214 6.764-22.429-1.902-1.9-3.906-1.747-7.53.506-12.012.37-.735.672-1.418.672-1.52 0-.29-2.785-6.321-6.96-15.073-.963-2.016-2.779-5.841-4.038-8.5-4.044-8.543-3.377-7.656-5.714-7.602-2.866.066-4.564-.308-7.213-1.587-1.966-.949-1.757-.992-4.833.994-10.161 6.561-20.908 16.02-28.842 25.387-.632.748-1.488 1.757-1.9 2.244-1.279 1.51-3.865 4.878-4.046 5.271-.143.308-.039.659.591 2 5.223 11.123-2.9 22.708-15.663 22.342-1.365-.039-1.753.003-1.962.211-.28.278-4.954 9.634-5.991 11.99-1.297 2.946-2.162 4.67-2.498 4.981-1.521 1.403-6.306.548-8.486-1.517-1.234-1.168-.902-2.086 5-13.837 1.784-3.551 3.19-6.542 3.125-6.647a37 37 0 0 0-.954-1.294c-5.183-6.837-3.726-16.514 3.261-21.659 3.923-2.888 8.2-3.632 14.914-2.593.811.126.644.273 2.86-2.517C59.973 81.358 73.786 68.919 86.5 60.567c2.515-1.652 3.246-2.291 3.084-2.695-1.264-3.143-.354-8.733 1.998-12.275 5.175-7.796 17.147-8.912 23.576-2.197.751.784.834.774 3.196-.411 18.371-9.209 42.803-16.365 61.142-17.909 3.449-.291 3.464-.298 4.243-2.098 2.972-6.862 11.35-10.677 19.178-8.73m-7.667 2.601c-9.729 2.647-12.462 14.689-4.75 20.93 6.771 5.479 17.104 2.909 20.182-5.019 3.645-9.386-5.345-18.655-15.432-15.911m6.72.335c12.281 3.008 12.088 19.702-.263 22.815-6.183 1.558-13.081-2.258-14.806-8.19-2.6-8.943 5.636-16.936 15.069-14.625m-5.093 3.564c-7.222 1.57-8.596 11.407-2.044 14.64 2.442 1.205 4.043 1.382 6.136.679 10.071-3.381 6.28-17.572-4.092-15.319m4.513.587c5.204 1.618 6.821 8.356 2.95 12.289-4.809 4.885-13.347 1.665-13.338-5.029.007-5.374 5.071-8.913 10.388-7.26m-21.557 6.326a63 63 0 0 1-2.583.331c-17.159 1.891-38.844 8.217-54.877 16.007-3.174 1.543-3.439 1.762-2.996 2.481.147.238.473.791.724 1.228.605 1.056.949 1.121 2.354.45 4.91-2.344 8.307-3.845 11.545-5.102 6.194-2.403 9.042-3.404 13.417-4.715l3.416-1.025c3.949-1.186 13.073-3.403 16.459-3.999.481-.085 1.306-.233 1.833-.33 1.916-.351 2.816-.497 4.042-.655a89 89 0 0 0 2.333-.335 78 78 0 0 1 4.75-.607c1.57-.143 1.556-.124 1.458-1.939-.112-2.06-.14-2.086-1.875-1.79m36.041.027c-.114.115-.209.549-.211.966a8 8 0 0 1-.156 1.414c-.215.927.005 1.261.829 1.261.362 0 1.165.074 1.786.164.62.089 1.803.243 2.628.341 5.486.653 8.633 1.2 16.235 2.82 11.852 2.525 26.705 7.754 37.718 13.277 2.291 1.149 2.359 1.137 3.176-.553.932-1.93 1.229-1.616-3.796-4.003-15.629-7.426-33.025-12.592-50.083-14.874l-3.75-.503a56 56 0 0 0-2.333-.254c-.642-.054-1.317-.135-1.501-.181s-.427.011-.542.125M181.25 29.5v1.417l-.75.037c-.805.04-3.007.307-4.5.545-.504.081-1.479.229-2.167.33-5.064.743-8.587 1.422-14.416 2.782-1.774.413-2.817.676-5.542 1.397-10.394 2.751-21.327 6.801-31.204 11.559-.685.33-1.367.6-1.516.6-.244 0-1.488-1.832-1.488-2.191 0-.346 9.015-4.516 13.609-6.294 3.113-1.205 6.446-2.418 7.974-2.901.733-.231 2.308-.733 3.5-1.113 2.215-.708 6.006-1.847 7.5-2.253 5.51-1.5 10.44-2.649 13.917-3.243a133 133 0 0 0 2.166-.406c2.313-.453 3.014-.575 4.417-.769.733-.102 1.783-.253 2.333-.335s1.75-.23 2.667-.326c.917-.097 1.892-.202 2.167-.234 1.347-.158 1.333-.173 1.333 1.398m38.333-1.169c.642.084 1.842.236 2.667.34.825.103 1.814.257 2.199.341s.942.155 1.24.155c.297 0 .995.08 1.551.179 2.206.392 2.709.483 3.51.636.458.088 1.283.24 1.833.338s1.6.3 2.334.449l2.048.414c4.626.926 13.403 3.412 20.618 5.841 6.18 2.079 20.417 8.299 20.417 8.919 0 .405-1.07 2.39-1.289 2.39-.119 0-.947-.365-1.839-.812-10.943-5.479-26.995-11.096-38.205-13.369-.963-.195-2.013-.413-2.334-.484-1.477-.326-4.87-.981-6-1.158a99 99 0 0 1-2.083-.347 40 40 0 0 0-1.583-.249c-3.495-.453-5.945-.741-7.584-.891l-1.166-.106.059-1.334c.033-.733.092-1.386.131-1.451.078-.13 1.648-.04 3.476.199M101.074 41.984c-14.26 3.851-10.551 24.977 4.127 23.508 2.346-.234 2.44-.21 2.808.722.319.805 6.399 13.735 8.332 17.72 1.558 3.21 2.301 4.79 6.142 13.056 1.578 3.398 1.528 3.093.685 4.113-7.132 8.63 2.982 20.724 13.072 15.631 10.638-5.369 4.607-21.553-7.073-18.984-2.042.449-1.392 1.27-4.753-6-.805-1.742-3.109-6.617-5.12-10.833a3766 3766 0 0 1-5.915-12.46l-2.258-4.793 1.426-1.335c4.345-4.065 5.052-10.056 1.794-15.214-2.671-4.229-8.4-6.445-13.267-5.131m189.012.029c-9.29 2.717-12.014 14.574-4.746 20.659 1.047.877 1.065.741-.483 3.632-.72 1.345-2.006 3.759-2.857 5.363a265 265 0 0 1-2.25 4.166c-.906 1.61-6.234 11.687-9.077 17.167-2.655 5.117-2.119 4.562-4.376 4.522-11.103-.196-15.246 14.41-5.426 19.127 10.926 5.248 20.871-7.855 12.421-16.365-.619-.623-1.125-1.196-1.125-1.273 0-.159 4.253-8.461 6.58-12.844.852-1.604 2.335-4.417 3.295-6.25 8.019-15.303 7.737-14.839 8.852-14.589 10.055 2.254 18.081-8.162 13.349-17.324-2.521-4.881-8.828-7.55-14.157-5.991m-182.253.586c8.766 2.754 11.024 15.053 3.696 20.131-.998.691-.992.75.365 3.591.682 1.428 1.97 4.133 2.863 6.012.892 1.879 2.596 5.442 3.785 7.917 2.213 4.604 2.747 5.743 6.29 13.417 2.485 5.38 2.141 4.967 3.831 4.604 6.825-1.466 12.676 2.858 12.668 9.363-.008 7.607-7.99 12.167-15.041 8.594-5.215-2.643-6.64-10.309-2.769-14.9.918-1.09.885-1.255-1.12-5.503a296 296 0 0 1-2.314-4.992c-.301-.687-1.277-2.75-2.169-4.583a1175 1175 0 0 1-7.824-16.5 471 471 0 0 0-1.974-4.227c-.301-.603-.872-.746-2.152-.538-7.185 1.169-13.658-4.264-13.629-11.44.032-7.831 7.844-13.35 15.494-10.946m187.584-.436c2.727.439 5.59 2.012 7.115 3.908 7.02 8.728-.246 20.801-11.371 18.894-1.58-.271-1.455-.399-3.633 3.716a1988 1988 0 0 1-3.271 6.152c-4.918 9.196-12.033 22.887-12.412 23.886-.168.443-.111.539 1.034 1.75 2.779 2.937 3.725 6.058 2.857 9.424-2.312 8.961-15.095 10.19-19.108 1.837l-.711-1.48v-2.333c0-5.988 3.758-9.681 10.08-9.908l2.581-.092.353-.667c.194-.367 2.176-4.154 4.405-8.417 2.229-4.262 4.985-9.475 6.125-11.583 5.051-9.341 7.206-13.424 7.206-13.654 0-.11-.694-.91-1.542-1.777-6.474-6.619-3.411-17.712 5.375-19.466l1.25-.249c.665-.131 2.69-.098 3.667.059m-193.12 3.762c-9.007 2.184-7.525 15.408 1.726 15.408 7.831 0 11.034-10.094 4.53-14.274-1.902-1.222-4.185-1.636-6.256-1.134m189.474-.002c-7.006 1.526-8.503 10.533-2.364 14.227 7.355 4.426 15.473-4.174 10.556-11.183-1.776-2.533-5.014-3.736-8.192-3.044m-186.154.327c8.82 2.28 7.507 14.75-1.552 14.75-9.034 0-10.163-13.252-1.258-14.751 1.7-.286 1.7-.286 2.81.001m189.192-.016c5.586 1.065 8.036 6.972 4.821 11.62-4.136 5.979-13.543 2.898-13.546-4.437-.002-4.237 2.588-6.849 7.333-7.397.091-.011.718.086 1.392.214M87.417 63.103c-12.021 7.953-25.691 20.299-33.152 29.942-1.326 1.713-1.33 1.676.317 2.787 1.689 1.14 1.659 1.151 3.806-1.415 9.081-10.86 20.029-20.837 31.141-28.381 2.795-1.898 2.785-1.877 1.547-3.288-1.187-1.351-1.064-1.363-3.659.355m219.345-.241c-1.304 1.678-1.723 1.114 3.682 4.946 10.706 7.591 20.267 16.383 28.801 26.484 2.45 2.9 2.311 2.842 3.874 1.627 1.766-1.371 1.759-1.397-1.222-4.836-9.301-10.728-20.172-20.352-31.476-27.868-2.787-1.852-2.514-1.826-3.659-.353m-215.957.223c.864 1.079.912.979-1.105 2.314-10.708 7.092-23.648 18.856-31.783 28.896-.825 1.018-1.628 1.856-1.784 1.862-.432.015-2.49-1.483-2.353-1.712 1.146-1.928 9.309-10.927 12.761-14.069 6.358-5.787 9.683-8.588 14.459-12.179 3.691-2.775 8.46-6.025 8.833-6.019.138.003.575.411.972.907m220.293 1.11c11.549 7.845 22.353 17.55 31.046 27.888 2.183 2.596 2.125 2.342.776 3.402-1.365 1.073-1.115 1.16-2.939-1.027-9.172-10.997-20.3-21.017-32.531-29.291-1.307-.884-1.31-.897-.45-1.937.367-.444.667-.865.667-.935 0-.345.682.033 3.431 1.9M41.331 97.087c-11.836 1.846-15.289 16.013-5.498 22.561 9.86 6.595 23.151-2.513 19.916-13.648-1.43-4.919-5.324-8.127-10.832-8.92-1.932-.279-1.752-.279-3.586.007m311.022.101c-8.569 1.423-13.236 10.811-8.975 18.056 3.771 6.413 11.727 8.433 18.11 4.597 12.28-7.381 5.164-25.028-9.135-22.653m-305.536.637c9.449 2.44 12.203 14.628 4.661 20.625-6.709 5.336-16.557 3.206-19.968-4.319-4.227-9.321 4.862-19.003 15.307-16.306m311.289-.081c7.406 1.762 11.473 9.993 8.17 16.535-4.638 9.185-17.975 9.44-22.733.435-4.897-9.268 3.891-19.509 14.563-16.97m-317.491 3.673c-9.227 2.536-7.298 15.752 2.302 15.768 9.779.017 11.484-13.503 1.988-15.77-1.222-.292-3.224-.291-4.29.002m89.703-.061c-5.21.529-7.365 7.129-3.539 10.842 4.137 4.015 11.049 1.181 11.051-4.531 0-3.902-3.369-6.733-7.512-6.311m134.522 0c-6.203 1.029-7.394 9.684-1.665 12.108 6.659 2.817 12.507-5.291 7.458-10.34-1.008-1.008-3.853-2.157-4.8-1.938-.046.011-.492.087-.993.17m87.827.049c-5.919 1.65-7.999 8.707-3.902 13.239 3.704 4.098 11.273 3.149 13.651-1.711 3.091-6.317-2.925-13.429-9.749-11.528m-308.073.354c3.987.924 5.989 3.4 5.989 7.408 0 4.726-2.938 7.663-7.666 7.663-8.739 0-11.034-12.07-2.815-14.804 1.818-.605 2.788-.663 4.492-.267m312.609.072c3.582 1.106 5.825 4.353 5.586 8.086-.543 8.465-13.11 9.486-15.523 1.261-1.657-5.645 4.172-11.128 9.937-9.347m-223.479.314c6.064 2.743 4.311 11.426-2.307 11.428-6.487.003-8.637-8.365-2.911-11.326 1.23-.636 3.922-.688 5.218-.102m134.991.141c2.345 1.051 3.913 4.155 3.284 6.502-1.859 6.936-11.755 6.225-12.128-.871-.238-4.524 4.534-7.562 8.844-5.631M30.184 128.708c-5.129 10.413-5.095 10.261-2.479 11.038 1.865.554 1.833.581 3.548-3.079a389 389 0 0 1 3.445-7.061c1.186-2.372 2.119-4.408 2.074-4.526-.1-.26-3.189-1.747-3.629-1.747-.244 0-.891 1.176-2.959 5.375m331.818-4.319c-.869.474-1.604.98-1.632 1.126s.804 1.983 1.85 4.083c1.045 2.1 2.519 5.131 3.275 6.735 1.869 3.967 1.931 4.019 3.929 3.331 1.069-.368 1.743-.89 1.743-1.351 0-.758-5.69-12.64-6.873-14.355-.407-.589-.424-.586-2.292.431m-325.775.783c.078.072-.702 1.807-1.734 3.855a309 309 0 0 0-3.358 6.89c-1.867 3.991-1.779 3.895-3.175 3.431-1.643-.547-1.866-.821-1.472-1.809.67-1.681 6.185-13.18 6.546-13.649.137-.178 2.742.869 3.193 1.282m327.944-.666c.198.279 1.279 2.397 2.401 4.708 4.855 9.996 4.65 9.33 3.054 9.917-2.085.767-1.89.931-3.849-3.214a403 403 0 0 0-3.269-6.723c-1.961-3.925-1.94-3.549-.249-4.458 1.603-.863 1.472-.847 1.912-.23" fill="#9a9e9f"/></g>
  </svg>

  <svg id="duck-layer" x="365" y="78" width="440" height="440" viewBox="0 0 400 400" overflow="visible">
    
	  <defs>
    <clipPath id="duckClip">
      <path d="M229.813 26.124c-1.486.641-1.583 1.075-1.595 7.179-.025 12.51-4.491 17.74-19.337 22.643-25.445 8.403-41.737 21.601-51.625 41.821-13.451 27.507-9.363 58.366 11.149 84.155 5.235 6.581 5.448 8.699 1.254 12.469-11.571 10.404-46.026 15.663-64.027 9.773-6.488-2.123-10.707-4.898-16.78-11.039-7.228-7.308-11.03-9.375-17.27-9.388-12.75-.027-24.463 14.378-22.409 27.557.604 3.875.664 3.688-1.391 4.328-14.185 4.423-19.766 40.725-10.934 71.118 12.183 41.922 49.496 72.017 102.227 82.452 65.076 12.878 136.278 3.582 170.968-22.322 40.67-30.368 42.945-90.606 4.891-129.497-6.321-6.46-11.864-10.647-22.311-16.854-7.227-4.294-8.336-7.473-3.799-10.888 3.1-2.332 4.406-3.822 4.146-4.729-.632-2.208-1.239-1.954 5.754-2.408 16.823-1.094 32.11-6.886 43.12-16.337 17.938-15.399 15.493-36.548-3.668-31.728-10.348 2.604-16.597 1.253-23.289-5.031-1.179-1.108-2.81-2.405-3.624-2.882l-1.479-.867-.206-2.776c-1.983-26.747-16.926-48.537-40.476-59.023-3.611-1.607-3.526-1.476-2.421-3.723 3.688-7.501 2.488-19.298-1.964-19.298-.848 0-1.728.56-5.904 3.751-2.393 1.829-9.239 5.419-9.616 5.043-.128-.129-.254-1.342-.279-2.696-.145-7.943-5.327-15.687-13.079-19.548-2.633-1.311-4.833-1.77-6.026-1.255"/>
    </clipPath>
  </defs>
	<g fill-rule="evenodd" clip-path="url(#duckClip)">
		<path d="M234.448 36.266c-.01 12.233-7.208 20.099-23.439 25.611-16.01 5.437-25.219 10.798-34.564 20.122-25.389 25.33-27.345 65.907-4.519 93.759 4.711 5.747 6.112 7.602 6.99 9.25 3.494 6.559 2.281 15.026-2.854 19.924-2.72 2.594-3.413 2.304-2.098-.881.816-1.977 1.619-5.608 1.308-5.918-.09-.091-.7.353-1.354.985-9.6 9.276-38.481 15.856-59.078 13.459-13.246-1.541-20.808-5.271-30.639-15.114-8.047-8.056-12.214-9.334-18.97-5.817-11.71 6.096-13.391 22.385-3.164 30.66 3.371 2.728.526 2.877-5.894.31-7.301-2.92-10.218-1.062-13.403 8.541-8.523 25.694-2.699 58.893 14.525 82.796 26.364 36.586 72.372 54.219 141.589 54.265 13.602.009 16.47-.116 28.708-1.251 71.258-6.607 109.308-37.475 107.881-87.519-.874-30.633-17.724-57.006-47.418-74.218-4.379-2.538-7.98-6.754-7.996-9.36-.009-1.563-.294-1.674-2.889-1.126-7.179 1.515-21.827.44-21.827-1.603 0-.587.401-.678 5.263-1.183 10.1-1.05 17.739-3.412 23.398-7.235 2.861-1.933 2.842-2.034-.487-2.526-9.21-1.364-15.574-6.798-15.574-13.297 0-4.909 2.093-7.526 8.669-10.835 8.827-4.441 10.642-6.763 13.817-17.675 2.53-8.698 6.257-13.568 11.51-15.038l1.489-.417-.219-2.711c-1.969-24.262-16.806-44.461-39.517-53.797-2.8-1.151-2.824-1.155-4.306-.663-4.19 1.392-12.489 1.475-12.749.128-.077-.4.524-.731 2.548-1.402 8.573-2.843 13.654-8.915 13.654-16.318 0-1.955-.179-2.042-1.456-.709-3.055 3.191-11.202 7.127-18.472 8.923-6.529 1.614-7.274 1.285-4.242-1.868 5.776-6.008 5.436-13.351-.948-20.473-.708-.79-1.733-1.695-2.279-2.012l-.992-.576zm55.823 42.043c.953.965 1.804 1.755 1.892 1.755s-.62-.79-1.573-1.755-1.804-1.754-1.892-1.754.62.789 1.573 1.754m-26.71 25.678c12.443 3.843 16.489 23.183 6.797 32.49-10.742 10.315-27.106 1.183-27.067-15.105.03-12.167 9.862-20.6 20.27-17.385m-114.198 23.445c.003.702.069.951.145.555.076-.397.073-.971-.007-1.276-.079-.305-.142.019-.138.721m-.007 8.134c0 .614.066.865.146.558s.08-.809 0-1.116-.146-.056-.146.558m178.315-.099c.307.08.81.08 1.117 0s.056-.146-.558-.146-.866.066-.559.146M89.952 194.099c.595.614 1.154 1.116 1.242 1.116.087 0-.328-.502-.923-1.116s-1.154-1.117-1.241-1.117.327.503.922 1.117m225.997 24.083c1.042 1.052 1.966 1.914 2.053 1.914.088 0-.692-.862-1.734-1.914s-1.966-1.914-2.053-1.914c-.088 0 .692.861 1.734 1.914M32.297 253.11c.004.702.069.951.146.555.076-.397.073-.971-.007-1.276s-.142.019-.139.721m38.676 6.561c21.497 40.674 83.551 54.849 124.748 28.495 5.091-3.256 2.93 1.345-2.963 6.308-14.554 12.258-40.299 17.455-63.571 12.832-30.808-6.119-57.572-27.2-60.794-47.884-.497-3.193.828-3.065 2.58.249m271.372 21.509c.004.702.069.952.145.555.077-.397.074-.971-.006-1.276s-.142.019-.139.721m-153.42 93.855c.839.066 2.131.066 2.871-.001s.054-.121-1.525-.12-2.185.056-1.346.121m16.896-.002c.658.069 1.735.069 2.393 0s.119-.125-1.196-.125c-1.316 0-1.855.056-1.197.125" fill="#fbc40b"/>
		<path d="M229.813 26.124c-1.486.641-1.583 1.075-1.595 7.179-.025 12.51-4.491 17.74-19.337 22.643-25.445 8.403-41.737 21.601-51.625 41.821-13.451 27.507-9.363 58.366 11.149 84.155 5.235 6.581 5.448 8.699 1.254 12.469-11.571 10.404-46.026 15.663-64.027 9.773-6.488-2.123-10.707-4.898-16.78-11.039-7.228-7.308-11.03-9.375-17.27-9.388-12.75-.027-24.463 14.378-22.409 27.557.604 3.875.664 3.688-1.391 4.328-14.185 4.423-19.766 40.725-10.934 71.118 12.183 41.922 49.496 72.017 102.227 82.452 65.076 12.878 136.278 3.582 170.968-22.322 40.67-30.368 42.945-90.606 4.891-129.497-6.321-6.46-11.864-10.647-22.311-16.854-7.227-4.294-8.336-7.473-3.799-10.888 3.1-2.332 4.406-3.822 4.146-4.729-.632-2.208-1.239-1.954 5.754-2.408 16.823-1.094 32.11-6.886 43.12-16.337 17.938-15.399 15.493-36.548-3.668-31.728-10.348 2.604-16.597 1.253-23.289-5.031-1.179-1.108-2.81-2.405-3.624-2.882l-1.479-.867-.206-2.776c-1.983-26.747-16.926-48.537-40.476-59.023-3.611-1.607-3.526-1.476-2.421-3.723 3.688-7.501 2.488-19.298-1.964-19.298-.848 0-1.728.56-5.904 3.751-2.393 1.829-9.239 5.419-9.616 5.043-.128-.129-.254-1.342-.279-2.696-.145-7.943-5.327-15.687-13.079-19.548-2.633-1.311-4.833-1.77-6.026-1.255m7.833 9.55c6.756 6.857 7.244 15.356 1.212 21.129-2.637 2.524-2.055 2.758 3.507 1.41 6.984-1.692 13.621-4.794 18.156-8.487 2.816-2.293 2.637-2.302 2.637.127 0 7.774-5.06 14.089-13.47 16.813-1.355.439-2.504.942-2.551 1.117-.296 1.084 8.886.842 12.246-.323 1.757-.609 3.002-.211 9.517 3.047 19.804 9.902 32.893 29.4 34.62 51.571l.229 2.939-.918.361c-7.144 2.814-9.702 6.275-12.713 17.206-2.206 8.009-5.364 11.84-12.766 15.486-7.273 3.583-9.397 6.316-9.018 11.603.437 6.079 7.131 11.261 15.907 12.312 3.212.384 3.21.824-.018 3.013-5.801 3.937-13.982 6.426-24.181 7.359-2.328.213-4.3.496-4.383.63-1.056 1.708 15.085 2.836 21.215 1.482 3.213-.71 3.09-.751 3.493 1.132.765 3.566 3.397 6.764 7.537 9.16 36.231 20.963 53.986 56.719 46.365 93.376-8.763 42.15-45.86 64.461-116.406 70.011-31.879 2.508-74.633-2.238-100.899-11.199-55.493-18.935-86.905-67.665-76.424-118.558 3.272-15.891 6.847-19.517 15.816-16.043 3.488 1.35 6.358 2.126 6.679 1.804.11-.109-1.015-1.39-2.5-2.845-7.501-7.353-7.564-18.273-.15-26.27 7.48-8.069 14.318-7.455 24.005 2.155 7.158 7.101 12.157 10.435 18.959 12.644 20.729 6.732 56.02 1.211 70.415-11.015 1.271-1.079 1.719-1.31 1.855-.955.291.757-.479 4.386-1.326 6.257-1.16 2.561-.548 2.73 1.686.467 3.112-3.152 4.563-6.709 4.563-11.18 0-5.789-1.066-7.914-8.616-17.174-24.443-29.976-20.883-73.201 8.074-98.022 8.848-7.584 17.246-12.121 30.526-16.49 16.043-5.278 23.027-12.687 23.527-24.962.181-4.436.268-4.462 3.593-1.088m17.075 68.668c-11.789 4.054-15.028 21.036-5.915 31.007 7.478 8.182 19.849 6.295 24.718-3.77 6.881-14.226-5.305-31.878-18.803-27.237m11.627 5.884c2.7 1.373 4.191 4.993 3.169 7.696-2.245 5.941-11.463 3.919-11.463-2.514 0-4.389 4.422-7.152 8.294-5.182m40.974 21.228c.82.228 1.992 1.044 3.349 2.332 8.129 7.715 16.604 9.657 28.581 6.547 7.639-1.983 10.319.779 7.968 8.215-2.976 9.412-14.859 18.896-30.065 23.996-20.194 6.773-43.916 4.287-42.741-4.479.248-1.845 1.164-2.648 5.266-4.613 9.651-4.623 13.273-9.125 16.633-20.672 2.747-9.442 5.945-12.732 11.009-11.326M68.581 258.293c.011 11.731 14.703 28.932 33.173 38.837 33.065 17.73 77.573 14.271 95.228-7.403 2.373-2.914 1.892-3.045-2.217-.606-27.623 16.394-60.878 17.309-90.176 2.482-15.234-7.71-27.481-19.214-34.1-32.032-1.167-2.261-1.909-2.758-1.908-1.278" fill=""/>
		<path d="M0 0h400v400H0zM235.885 27.091c7.856 3.878 13.175 11.708 13.285 19.56.029 2.052.123 2.472.552 2.472 1.403-.001 7.691-3.643 10.725-6.211 4.645-3.934 6.877-3.12 8.286 3.021 1.001 4.359.355 9.844-1.649 14.006-.472.981-.867 1.896-.877 2.034s1.349.867 3.021 1.62c23.427 10.552 38.317 31.786 40.508 57.77.192 2.277.376 4.154.41 4.171 1.389.738 3.059 1.979 4.753 3.533 4.387 4.024 7.627 5.602 12.688 6.18 3.279.374 5.56.096 12.212-1.489 12.331-2.937 18.413 7.903 11.723 20.896-7.925 15.392-28.646 26.403-53.117 28.225-3.018.224-5.405.538-5.384.708.022.167.133.702.247 1.187.255 1.082-1.764 3.413-4.657 5.381-4.414 3.001-2.865 5.875 6.058 11.239 58.6 35.233 64.531 113.464 11.276 148.737-35.408 23.453-102.734 31.479-165.215 19.698-59.481-11.216-98.937-46.661-107.202-96.304-4.285-25.739 2.438-54.624 13.486-57.95 2.459-.74 2.465-.745 2.265-1.699-3.747-17.912 12.75-34.909 28.534-29.399 3.37 1.177 5.207 2.553 11.226 8.41 10.188 9.915 17.141 12.808 32.168 13.387 23.571.908 51.042-8.262 51.042-17.039 0-1.727-.66-2.844-4.668-7.898-9.417-11.876-14.736-23.211-16.99-36.201-5.43-31.302 7.178-60.593 33.662-78.208 6.974-4.639 13.286-7.55 24.142-11.137 15.157-5.008 19.493-9.993 19.53-22.458.02-6.338.069-6.575 1.524-7.318 1.456-.744 3.413-.416 6.436 1.076m26.794 82.866c-7.01 1.692-4.92 11.983 2.269 11.172 5.879-.662 6.033-9.445.194-11.067-1.246-.346-1.432-.354-2.463-.105" fill="#f4f4f4"/>
		<path d="M234.476 26.594c.329.294 2.207 1.157 2.207 1.014 0-.184-1.769-1.133-2.111-1.133-.126 0-.169.054-.096.119m-6.638 2.752c0 .79.062 1.113.138.718a4.6 4.6 0 0 0 0-1.436c-.076-.394-.138-.071-.138.718m13.629 1.695c0 .055.467.521 1.037 1.036l1.037.937-.937-1.036c-.873-.967-1.137-1.184-1.137-.937m-13.282 3.409c0 1.666.054 2.348.12 1.515.065-.833.065-2.197 0-3.03-.066-.834-.12-.152-.12 1.515m5.868 2.312c-.5 12.275-7.484 19.684-23.527 24.962-13.28 4.369-21.678 8.906-30.526 16.49-28.957 24.821-32.517 68.046-8.074 98.022 7.55 9.26 8.616 11.385 8.616 17.174 0 4.471-1.451 8.028-4.563 11.18-2.234 2.263-2.846 2.094-1.686-.467.847-1.871 1.617-5.5 1.326-6.257-.136-.355-.584-.124-1.855.955-14.395 12.226-49.686 17.747-70.415 11.015-6.802-2.209-11.801-5.543-18.959-12.644-9.687-9.61-16.525-10.224-24.005-2.155-7.414 7.997-7.351 18.917.15 26.27 1.485 1.455 2.61 2.736 2.5 2.845-.321.322-3.191-.454-6.679-1.804-6.754-2.616-9.317-1.73-12.127 4.193-7.569 15.952-7.383 43.315.436 64.238 15.372 41.133 53.817 67.3 110.04 74.897 12.028 1.625 28.624 2.938 33.812 2.674 2.159-.109 2.066-.128-.957-.187-38.075-.752-72.928-9.397-97.92-24.289-37.608-22.408-57.556-65.958-48.632-106.172 3.321-14.962 6.806-18.429 15.165-15.086 6.42 2.567 9.265 2.418 5.894-.31-10.227-8.275-8.546-24.564 3.164-30.66 6.756-3.517 10.923-2.239 18.97 5.817 9.831 9.843 17.393 13.573 30.639 15.114 20.597 2.397 49.478-4.183 59.078-13.459.654-.632 1.264-1.076 1.354-.985.311.31-.492 3.941-1.308 5.918-1.315 3.185-.622 3.475 2.098.881 5.135-4.898 6.348-13.365 2.854-19.924-.878-1.648-2.279-3.503-6.99-9.25-22.826-27.852-20.87-68.429 4.519-93.759 9.345-9.324 18.554-14.685 34.564-20.122 16.231-5.512 23.429-13.378 23.439-25.611l.002-2.809.992.576c.546.317 1.571 1.222 2.279 2.012 6.384 7.122 6.724 14.465.948 20.473-3.032 3.153-2.287 3.482 4.242 1.868 7.27-1.796 15.417-5.732 18.472-8.923 1.277-1.333 1.456-1.246 1.456.709 0 7.403-5.081 13.475-13.654 16.318-2.024.671-2.625 1.002-2.548 1.402.26 1.347 8.559 1.264 12.749-.128 1.482-.492 1.506-.488 4.306.663 22.711 9.336 37.548 29.535 39.517 53.797l.219 2.711-1.489.417c-5.253 1.47-8.98 6.34-11.51 15.038-3.175 10.912-4.99 13.234-13.817 17.675-6.576 3.309-8.669 5.926-8.669 10.835 0 6.499 6.364 11.933 15.574 13.297 3.329.492 3.348.593.487 2.526-5.659 3.823-13.298 6.185-23.398 7.235-4.862.505-5.263.596-5.263 1.183 0 2.043 14.648 3.118 21.827 1.603 2.595-.548 2.88-.437 2.889 1.126.016 2.606 3.617 6.822 7.996 9.36 35.529 20.593 53.212 55.95 46.042 92.059-9.063 45.643-52.89 69.201-132.343 71.137l-10.845.264 11.483-.129c85.605-.96 133.493-32.037 133.493-86.63 0-31.76-17.138-59.325-47.981-77.17-4.14-2.396-6.772-5.594-7.537-9.16-.403-1.883-.28-1.842-3.493-1.132-6.13 1.354-22.271.226-21.215-1.482.083-.134 2.055-.417 4.383-.63 10.199-.933 18.38-3.422 24.181-7.359 3.228-2.189 3.23-2.629.018-3.013-8.776-1.051-15.47-6.233-15.907-12.312-.379-5.287 1.745-8.02 9.018-11.603 7.402-3.646 10.56-7.477 12.766-15.486 3.011-10.931 5.569-14.392 12.713-17.206l.918-.361-.229-2.939c-1.727-22.171-14.816-41.669-34.62-51.571-6.515-3.258-7.76-3.656-9.517-3.047-3.36 1.165-12.542 1.407-12.246.323.047-.175 1.196-.678 2.551-1.117 8.41-2.724 13.47-9.039 13.47-16.813 0-2.429.179-2.42-2.637-.127-4.535 3.693-11.172 6.795-18.156 8.487-5.562 1.348-6.144 1.114-3.507-1.41 6.032-5.773 5.544-14.272-1.212-21.129-3.325-3.374-3.412-3.348-3.593 1.088m12.04.24c.272.526.566.957.654.957s-.063-.431-.336-.957c-.272-.527-.566-.957-.654-.957s.063.43.336.957m-18.916 4.051c-.472 1.538-.244 1.766.255.255.211-.638.321-1.221.245-1.297s-.301.393-.5 1.042m38.953.133c.319.186.857.791 1.195 1.346s.616.84.616.634c.002-.525-1.573-2.339-2.02-2.327-.204.005-.11.162.209.347m-6.964 2.783a152 152 0 0 1-2.711 2.059c-.436.315-.578.472-.315.349.827-.387 4.321-2.915 4.761-3.445.618-.745.388-.607-1.735 1.037m-33.107-.105c-.292.611-.465 1.112-.384 1.112.218 0 1.186-1.953 1.04-2.099-.069-.069-.364.375-.656.987m22.819 1.431c0 .614.065.865.146.558s.08-.809 0-1.116c-.081-.307-.146-.056-.146.558m-24.318 1.037c-.469.641-.546.864-.202.584.523-.425 1.314-1.621 1.072-1.621-.061 0-.452.467-.87 1.037m29.906.74c-1.193.647-1.12.917.079.296.527-.272.957-.563.957-.646 0-.205-.034-.193-1.036.35m-31.993 1.812-1.261 1.355 1.356-1.261c1.261-1.172 1.502-1.45 1.261-1.45-.052 0-.662.61-1.356 1.356m26.379-.338c-.058 1.031.382 1.376 1.145.898.492-.308.476-.328-.134-.163-.576.157-.718.036-.829-.702l-.135-.892zm2.823-.061c-.614.336-.973.611-.798.611.176 0 .822-.275 1.436-.611s.972-.611.797-.611-.821.275-1.435.611m17.327 2.233c0 1.14.058 1.607.128 1.036.071-.57.071-1.503 0-2.073s-.128-.104-.128 1.037m-50.262.82c-1.192.647-1.12.916.08.296.526-.272.957-.563.957-.646 0-.205-.035-.194-1.037.35m-7.735 3.497c-.798.384-.824.429-.16.266.904-.221 1.92-.739 1.436-.731-.176.002-.75.212-1.276.465m-3.509 1.105c-.402.173-.461.274-.159.274.263 0 .765-.123 1.116-.274.402-.172.461-.274.159-.274-.263 0-.765.124-1.116.274m58.365 5.437c-.236.381.396 1.262.906 1.262.187 0 .076-.194-.248-.43-.323-.237-.486-.596-.361-.798s.156-.367.068-.367-.252.15-.365.333m-73.596.646c-.658.347-1.196.702-1.196.79 0 .142 2.519-1.036 2.844-1.33.367-.332-.591-.018-1.648.54m76.316 1.413c.438.251.941.456 1.116.456s-.04-.205-.478-.456c-.439-.25-.941-.455-1.117-.455-.175 0 .04.205.479.455m4.784 2.22c0 .088.574.453 1.276.811s1.276.579 1.276.491-.574-.452-1.276-.81-1.276-.579-1.276-.492m-90.356 1.939c-.655.445-1.191.877-1.191.961s.574-.227 1.276-.692c1.114-.737 1.491-1.078 1.191-1.078-.047 0-.622.364-1.276.809m-4.221 3.127c-1.404 1.109-2.761 2.292-3.017 2.629-.255.336.032.169.638-.373.607-.541 2-1.675 3.097-2.519 1.752-1.349 2.208-1.767 1.913-1.757-.043.002-1.228.911-2.631 2.02m102.859.11c3.274 2.659 4.693 3.697 3.324 2.431a29 29 0 0 0-2.87-2.271c-1.197-.813-1.303-.85-.454-.16m-110.049 6.4c-2.942 3.01-6.35 6.745-4.584 5.024 1.743-1.698 8.194-8.453 8.073-8.453-.076 0-1.646 1.543-3.489 3.429m118.208.697c1.762 1.853 3.895 4.16 4.741 5.125 1.263 1.44 1.346 1.497.465.319-.59-.79-2.723-3.096-4.741-5.125l-3.668-3.69zm-125.257 7.278c-.918 1.108-1.307 1.674-1.149 1.674.088 0 .544-.502 1.012-1.116.869-1.14.975-1.57.137-.558m132.102.717c.374.527.753.957.841.957s-.148-.43-.522-.957c-.375-.526-.753-.957-.841-.957s.147.431.522.957m-134.217 2.154c-.825 1.192-1.094 1.674-.932 1.674.075 0 .516-.574.98-1.276.944-1.426.903-1.771-.048-.398m139.248 6.033c1.005 1.959 1.872 3.517 1.926 3.463.14-.139-2.648-5.608-3.255-6.386-.273-.351.325.964 1.329 2.923m-142.671-.531c-.272.526-.423.957-.335.957s.382-.431.654-.957.423-.957.336-.957c-.088 0-.383.431-.655.957m-3.297 6.553c-.535 1.173-.433 1.423.145.357.27-.498.431-.966.358-1.039s-.299.234-.503.682m98.25 3.96c-9.389 3.703-13.503 15.882-8.815 26.091 7.179 15.632 27.241 13.071 30.29-3.867 2.587-14.369-9.549-26.929-21.475-22.224m8.489-.293c8.522 1.965 14.49 12.51 12.686 22.412-3.627 19.904-29.009 18.021-31.383-2.329-1.465-12.559 7.866-22.582 18.697-20.083m5.348 7.663c.692.801 1.323 1.406 1.402 1.345s-.487-.716-1.258-1.456l-1.402-1.345zm-8.213-.419c-.562.654-.984 1.356-.815 1.356.065 0 .437-.431.826-.957.769-1.04.761-1.299-.011-.399m10.041 4.705c.002.877.064 1.198.137.713s.072-1.202-.004-1.595c-.076-.392-.136.005-.133.882m39.536 2.073c0 .614.066.866.146.559s.08-.81 0-1.117-.146-.056-.146.558m-40.425.743c-.351.543-1.126 1.316-1.722 1.718s-.924.729-.729.729c.47 0 2.546-1.835 2.968-2.623.544-1.017.172-.891-.517.176m40.765 2.766c0 .965.06 1.36.133.877a7 7 0 0 0 0-1.754c-.073-.483-.133-.088-.133.877m-45.944-.09c.485.073 1.203.071 1.595-.004.392-.076-.004-.136-.882-.134-.877.003-1.198.065-.713.138m-113.873 3.28c0 .789.062 1.112.138.718a4.6 4.6 0 0 0 0-1.436c-.076-.395-.138-.072-.138.718m164.666 4.102c.702.756 1.85 1.818 2.552 2.359 1.487 1.148 1.103.742-1.754-1.852-1.484-1.346-1.711-1.491-.798-.507m-164.955 2.756c.001 1.754.054 2.431.119 1.504.064-.927.064-2.362-.002-3.189-.065-.828-.118-.069-.117 1.685m153.372.349c-3.053 1.521-4.404 3.792-6.458 10.852-3.36 11.547-6.982 16.049-16.633 20.672-4.102 1.965-5.018 2.768-5.266 4.613-1.175 8.766 22.547 11.252 42.741 4.479 15.206-5.1 27.089-14.584 30.065-23.996 2.351-7.436-.329-10.198-7.968-8.215-11.977 3.11-20.452 1.168-28.581-6.547-2.996-2.844-4.984-3.311-7.9-1.858m16.527.925c0 .216 2.591 1.504 2.735 1.36.067-.067-.521-.434-1.306-.815-.786-.382-1.429-.627-1.429-.545m23.046.713c.658.069 1.735.069 2.393 0s.119-.125-1.196-.125c-1.316 0-1.854.056-1.197.125m8.693 2.957c.685.702 1.317 1.276 1.405 1.276s-.401-.574-1.086-1.276c-.686-.702-1.318-1.276-1.406-1.276s.401.574 1.087 1.276m-21.607-.731c.396.076.971.073 1.275-.007.305-.079-.019-.142-.721-.138s-.951.068-.554.145m-179.748 1.529c.003.701.069.951.145.554s.073-.971-.007-1.276c-.079-.305-.142.02-.138.722m204.481 7.177c0 .965.059 1.359.132.877a7 7 0 0 0 0-1.755c-.073-.482-.132-.087-.132.878m-2.742 9.737c-.471.96-.788 1.746-.705 1.746.215 0 1.823-3.229 1.68-3.372-.065-.066-.504.666-.975 1.626m-198.266.789c0 .263.123.765.274 1.116.173.402.274.461.274.16 0-.263-.123-.766-.274-1.117-.173-.402-.274-.461-.274-.159m196.275 2.632c-.492.745-.69 1.187-.441.981.479-.396 1.7-2.337 1.47-2.337-.074 0-.537.61-1.029 1.356m-4.454 5.459c-1.228 1.285-3.026 3.04-3.996 3.901-.969.86-1.544 1.413-1.276 1.227 1.999-1.383 8.239-7.513 7.606-7.471-.056.004-1.106 1.058-2.334 2.343m-189.61-1.871c0 .175.205.678.455 1.116.251.439.456.654.456.479s-.205-.678-.456-1.117c-.25-.438-.455-.653-.455-.478m1.891 4.109c0 .343.949 2.111 1.133 2.111.087 0-.078-.466-.368-1.037-.592-1.164-.765-1.407-.765-1.074m180.383 4.212-.957.823 1.036-.686c.57-.378 1.037-.748 1.037-.824 0-.239-.135-.156-1.116.687m-177.234 1.567c.172.351.547.925.832 1.276l.52.638-.314-.638a8 8 0 0 0-.832-1.276l-.52-.638zm169.1 3.19c-1.141.597-1.962 1.093-1.825 1.101.339.021 4.057-1.869 4.057-2.062 0-.215.075-.247-2.232.961m-165.883 1.735c.707 1.042 1.432 1.984 1.611 2.095.179.11-.334-.742-1.139-1.894-.806-1.153-1.531-2.095-1.612-2.095-.08 0 .432.852 1.14 1.894m161.098.498c-.439.251-.654.456-.479.456s.678-.205 1.117-.456.654-.456.478-.456c-.175 0-.678.205-1.116.456m-158.214 3.349c.556.702 1.082 1.276 1.17 1.276s-.295-.574-.851-1.276c-.556-.701-1.082-1.276-1.17-1.276s.295.575.851 1.276m136.128 2.459c.397.076.971.073 1.276-.007s-.019-.142-.721-.138-.951.068-.555.145m-3.986.322c.485.073 1.202.071 1.595-.004.392-.076-.005-.136-.882-.134s-1.198.065-.713.138m-5.932.303c-.117.117-.211.368-.208.558.003.22.092.208.245-.033.133-.208.956-.433 1.83-.5l1.588-.123-1.621-.057c-.892-.032-1.717.038-1.834.155M170.07 184.37c.627.789 1.368 1.866 1.646 2.392.279.527.513.802.52.613.018-.487-1.751-3.094-2.596-3.827-.39-.337-.196.033.43.822m-99.336-.726c.57.071 1.503.071 2.073 0s.104-.129-1.037-.129c-1.14 0-1.607.058-1.036.129m9.29 2.155c1.118.603 2.338 1.353 2.711 1.668.674.568.675.567.102-.111-.558-.662-4.018-2.674-4.572-2.66-.151.004.64.501 1.759 1.103m210.726 2.3c-1.143 1.067-1.4 1.395-.638.815 1.203-.917 2.981-2.647 2.687-2.615-.075.008-.997.818-2.049 1.8m-118.448 1.109c-.029.644-.136 1.433-.237 1.755-.173.55-.162.551.179.02.199-.31.305-1.099.237-1.754l-.125-1.191zM56.29 190.51l-1.904 1.994 1.994-1.904c1.851-1.768 2.139-2.083 1.903-2.083-.049 0-.946.897-1.993 1.993m30.632.559c1.041 1.052 1.966 1.913 2.053 1.913.088 0-.693-.861-1.734-1.913-1.042-1.053-1.966-1.914-2.054-1.914s.693.861 1.735 1.914m83.401 2.405c-.602.621-1.851 1.649-2.774 2.286-1.859 1.279-2.227 1.723-.689.829 1.008-.586 5.057-4.205 4.734-4.23-.097-.008-.67.494-1.271 1.115m115.875-.173c0 .614.066.866.146.559.081-.307.081-.81 0-1.117-.08-.307-.146-.056-.146.558m-232.535.24c-.826 1.192-1.095 1.674-.933 1.674.075 0 .516-.574.98-1.276.944-1.426.903-1.771-.047-.398m35.332-.158c0 .08 1.184 1.206 2.632 2.502 1.447 1.295 2.432 2.102 2.188 1.793-.543-.689-4.82-4.5-4.82-4.295m-37.496 3.778c-.453.895-.771 1.68-.705 1.745.065.066.504-.666.975-1.626.47-.96.788-1.746.705-1.746s-.522.732-.975 1.627m236.613.148c.655.699 1.66 1.525 2.233 1.835 1.007.546 1.015.545.245-.007-.438-.315-1.443-1.141-2.233-1.836l-1.435-1.263zm-125.433 1.256c-1.14.597-1.961 1.092-1.825 1.101.339.021 4.058-1.869 4.058-2.063 0-.214.075-.247-2.233.962m-65.071 1.901c0 .087.574.452 1.276.81.701.358 1.275.579 1.275.491s-.574-.452-1.275-.81c-.702-.358-1.276-.579-1.276-.491m199.979 2.982c.427.347 1.216.873 1.754 1.17l.978.539-.776-.631a14.4 14.4 0 0 0-1.755-1.169l-.978-.539zm-248.696 3.251c0 .789.062 1.112.138.717a4.5 4.5 0 0 0 0-1.435c-.076-.395-.138-.072-.138.718m86.599-.732c.397.077.971.074 1.276-.006s-.02-.142-.721-.139c-.702.004-.952.069-.555.145m-19.616.322c.484.074 1.202.072 1.595-.004.392-.076-.005-.136-.882-.133-.877.002-1.198.064-.713.137m15.63 0c.484.074 1.202.072 1.594-.004s-.004-.136-.881-.133c-.877.002-1.198.064-.713.137m-9.893.328a69 69 0 0 0 4.944 0c1.36-.06.247-.109-2.472-.109s-3.832.049-2.472.109m185.566 3.594c2.608 2.397 5.508 4.818 4.625 3.861-.526-.571-2.033-1.904-3.349-2.963-1.316-1.058-1.89-1.462-1.276-.898m-258.299.634c0 .614.065.866.146.559.08-.308.08-.81 0-1.117-.081-.307-.146-.056-.146.558m.589 3.406c-.014.382-.276.76-.583.84-.524.137-.523.148.01.183.618.04 1.024-.656.763-1.308-.091-.225-.176-.097-.19.285m-3.734 1.828c-.9.419-1.753.956-1.895 1.193-.219.362-.175.362.271 0 .293-.237 1.361-.772 2.374-1.188 1.013-.417 1.627-.76 1.364-.762s-1.215.338-2.114.757m271.637 3.857c3.4 3.666 4.196 4.43 2.331 2.233-.894-1.053-2.317-2.56-3.161-3.349-.845-.79-.471-.287.83 1.116m-276.644.558c-.734.985-1.773 2.812-1.405 2.473.314-.29 2.425-3.509 2.3-3.509-.066 0-.469.466-.895 1.036m-3.354 6.473c-.534 1.173-.432 1.424.146.357.27-.498.431-.965.358-1.038s-.3.234-.504.681m287.987 2.858c.543.789 1.059 1.435 1.147 1.435s-.285-.646-.828-1.435c-.543-.79-1.06-1.436-1.147-1.436-.088 0 .285.646.828 1.436m-289.451 1.298c-.117.468-.152.912-.077.987.076.075.233-.246.35-.713.118-.468.152-.912.077-.987s-.233.246-.35.713m291.005.934c.172.351.547.925.832 1.276l.52.638-.313-.638a8 8 0 0 0-.833-1.276l-.519-.638zm5.372 9.557c.824 1.66 1.55 2.967 1.612 2.904.142-.141-2.745-5.922-2.957-5.922-.085 0 .52 1.358 1.345 3.018M32.929 246.89c0 .614.066.865.146.558s.08-.809 0-1.116-.146-.056-.146.558m301.703-.479c0 .176.205.678.456 1.117.25.439.456.654.456.478 0-.175-.206-.677-.456-1.116-.251-.439-.456-.654-.456-.479m-302.001 3.988c0 .965.06 1.359.133.877a7 7 0 0 0 0-1.754c-.073-.483-.133-.088-.133.877m-.292 7.496c0 2.105.052 2.925.114 1.821a39 39 0 0 0-.001-3.827c-.063-1.002-.114-.1-.113 2.006m36.042-.331c-.274.714.079 2.732 1.023 5.848 5.994 19.799 31.035 38.184 59.783 43.894 23.272 4.623 49.017-.574 63.571-12.832 5.893-4.963 8.054-9.564 2.963-6.308-41.197 26.354-103.251 12.179-124.748-28.495-1.26-2.383-2.194-3.143-2.592-2.107m2.108 2.007c6.619 12.818 18.866 24.322 34.1 32.032 29.298 14.827 62.553 13.912 90.176-2.482 4.109-2.439 4.59-2.308 2.217.606-12.773 15.68-43.346 22.869-70.623 16.607-28.092-6.449-51.885-24.879-56.976-44.133-1.367-5.17-.845-6.41 1.106-2.63m-37.858 5.182c0 .965.06 1.359.133.877a7 7 0 0 0 0-1.754c-.073-.483-.133-.088-.133.877m.311 3.828c0 .789.062 1.112.138.717a4.5 4.5 0 0 0 0-1.435c-.076-.395-.138-.072-.138.718m308.759 4.784c0 .614.065.865.146.558s.08-.809 0-1.116c-.081-.307-.146-.056-.146.558m.354 4.625c.001 1.404.057 1.938.125 1.188.067-.75.066-1.898-.002-2.552-.069-.653-.124-.039-.123 1.364m-.005 7.018c.002 1.228.06 1.691.129 1.03.069-.662.067-1.667-.003-2.233s-.127-.025-.126 1.203m-305.323 2.073c0 .263.124.766.275 1.117.172.402.274.461.274.159 0-.263-.124-.765-.274-1.116-.173-.402-.275-.461-.275-.16m304.98 3.031c.004.701.069.951.145.554.077-.397.074-.971-.006-1.276s-.142.02-.139.722m-300.851 8.293c0 .176.275.821.611 1.436.336.614.612.972.612.797s-.276-.821-.612-1.435-.611-.973-.611-.798m2.206 4.747c0 .343.949 2.111 1.133 2.111.088 0-.078-.466-.368-1.037-.592-1.164-.765-1.407-.765-1.074m2.074 4.025c.272.526.566.957.654.957s-.063-.431-.335-.957c-.273-.526-.567-.957-.655-.957s.063.431.336.957m289.052 10.382c-.749 1.571-.644 1.838.139.353.356-.674.591-1.282.522-1.351s-.366.38-.661.998m-281.537 1.559c.558.778 1.437 1.89 1.952 2.472s.121-.055-.875-1.415c-.997-1.359-1.875-2.472-1.952-2.472-.078 0 .316.637.875 1.415m279.566 2.413c-.272.526-.423.957-.335.957s.382-.431.654-.957.423-.957.335-.957-.382.431-.654.957m-1.276 2.233c-.272.526-.423.957-.335.957s.382-.431.654-.957.423-.957.335-.957-.382.431-.654.957m-274.163.738c0 .055.467.521 1.037 1.036l1.037.937-.937-1.036c-.873-.967-1.137-1.184-1.137-.937m271.535 3.412c-1.072 1.582-1.814 2.792-1.649 2.69.436-.27 3.973-5.564 3.717-5.564-.065 0-.996 1.293-2.068 2.874m-267.472 1.113c1.246 1.404 3.028 3.27 3.961 4.147s.414.231-1.153-1.436c-4.212-4.48-5.373-5.601-2.808-2.711m262.436 5.503c-1.032 1.184-1.544 1.866-1.138 1.515.814-.703 3.358-3.669 3.147-3.669-.073 0-.977.969-2.009 2.154m-255.175 1.674c.864.877 1.643 1.595 1.73 1.595.088 0-.547-.718-1.411-1.595s-1.643-1.595-1.73-1.595c-.088 0 .547.718 1.411 1.595m250.71 3.27-2.544 2.631 2.632-2.544c2.444-2.363 2.777-2.719 2.544-2.719-.048 0-1.232 1.184-2.632 2.632M74.801 341.76c.526.453 1.603 1.265 2.392 1.806 1.103.755 1.213.792.478.16-.526-.452-1.602-1.265-2.392-1.805-1.102-.755-1.213-.792-.478-.161m239.234 1.992c-1.777 1.653-1.798 1.687-.286.475 1.481-1.187 2.618-2.3 2.319-2.269-.066.007-.98.814-2.033 1.794m-235.247.889c0 .087 1.256.998 2.791 2.024 3.106 2.076 3.921 2.568 3.429 2.069-.501-.508-6.22-4.271-6.22-4.093m231.579 1.969c-2.046 1.6-2.341 2.004-.544.745 1.341-.94 2.446-1.932 2.098-1.884-.065.009-.765.522-1.554 1.139m-3.444 2.49c-1.482 1.048-1.69 1.347-.439.631.584-.335 1.211-.788 1.395-1.007.471-.563.25-.476-.956.376m-218.247 1.92c0 .088.431.382.957.655.526.272.957.423.957.335s-.431-.382-.957-.654c-.526-.273-.957-.423-.957-.336m214.434.532c-1.087.696-1.439 1.164-.478.636.731-.403 1.878-1.289 1.674-1.295-.087-.003-.626.294-1.196.659m-211.563 1.067c0 .087.574.452 1.276.81s1.276.579 1.276.491-.574-.452-1.276-.81-1.276-.579-1.276-.491m205.343 2.427c-.658.347-1.196.702-1.196.789s.574-.134 1.276-.492c.701-.358 1.276-.72 1.276-.804 0-.209-.003-.208-1.356.507m-197.368 1.732c.438.251.941.456 1.116.456s-.04-.205-.479-.456c-.438-.25-.94-.456-1.116-.456-.175 0 .04.206.479.456m191.387 1.276c-.439.251-.654.456-.478.456.175 0 .677-.205 1.116-.456.439-.25.654-.456.479-.456s-.678.206-1.117.456m-187.56.479c.614.336 1.26.611 1.436.611s-.184-.275-.798-.611-1.26-.612-1.435-.612.183.276.797.612m170.495 6.06c-.402.173-.461.274-.16.274.263 0 .766-.123 1.117-.274.402-.172.461-.274.159-.274-.263 0-.765.124-1.116.274m-113.956 8.195c.307.08.81.08 1.117 0 .307-.081.056-.146-.558-.146s-.866.065-.559.146m2.552.319c.307.08.81.08 1.117 0 .307-.081.055-.146-.559-.146s-.865.065-.558.146m70.02.005c.397.077.971.074 1.276-.006s-.02-.142-.722-.139c-.701.004-.951.069-.554.145m-66.99.319a4.6 4.6 0 0 0 1.436 0c.395-.076.072-.138-.718-.138s-1.112.062-.718.138m64.119 0c.397.077.971.074 1.276-.006s-.02-.142-.721-.139c-.702.004-.952.069-.555.145m-60.61.319a4.6 4.6 0 0 0 1.436 0c.394-.076.071-.138-.718-.138-.79 0-1.112.062-.718.138m57.739 0c.397.077.971.074 1.276-.006s-.02-.142-.721-.139c-.702.004-.952.069-.555.145m-54.389.322a7 7 0 0 0 1.754 0c.482-.073.088-.133-.877-.133s-1.36.06-.877.133m49.76 0a7 7 0 0 0 1.755 0c.482-.073.087-.133-.877-.133-.965 0-1.36.06-.878.133m-44.976.323c.658.069 1.735.069 2.393 0s.119-.125-1.197-.125c-1.315 0-1.854.056-1.196.125m40.357-.001c.573.071 1.434.069 1.914-.003.479-.073.01-.131-1.043-.129-1.052.001-1.444.061-.871.132m-33.809.322c.75.067 1.898.066 2.552-.002.653-.069.039-.124-1.365-.123s-1.938.057-1.187.125m27.583 0c.833.066 2.197.066 3.03 0 .834-.066.152-.119-1.515-.119s-2.348.053-1.515.119m-15.294.323c1.719.057 4.446.057 6.06-.001s.207-.105-3.126-.104c-3.334 0-4.654.047-2.934.105" fill="#ed6a04"/>
	</g>

  </svg>

  <svg id="fence-layer" x="176" y="165" width="822" height="552" viewBox="0 0 1600 700" preserveAspectRatio="none" overflow="visible" fill="none">
<defs>
    <style>
      .wood { fill:none; stroke:#25283a; stroke-width:24; stroke-linecap:round; stroke-linejoin:round; }
      .post { fill:#25283a; stroke:#0b0b10; stroke-width:4; }
      .line { fill:none; stroke:#0b0b10; stroke-width:4; stroke-linecap:round; stroke-linejoin:round; }
      .hardware { fill:none; stroke:#0b0b10; stroke-width:5; stroke-linecap:round; stroke-linejoin:round; }
    </style>
  </defs>

  <!-- angled left extension rails -->
  <g id="left-extension" class="wood">
    <line x1="150" y1="245" x2="55" y2="220" />
    <line x1="150" y1="350" x2="55" y2="330" />
    <line x1="150" y1="455" x2="55" y2="420" />
  </g>

  <!-- angled right extension rails -->
  <g id="right-extension" class="wood">
    <line x1="1450" y1="245" x2="1545" y2="220" />
    <line x1="1450" y1="350" x2="1545" y2="330" />
    <line x1="1450" y1="455" x2="1545" y2="420" />
  </g>

  <!-- straight fence rails, left of gate -->
  <g id="left-rails" class="wood">
    <line x1="150" y1="245" x2="680" y2="245" />
    <line x1="150" y1="350" x2="680" y2="350" />
    <line x1="150" y1="455" x2="680" y2="455" />
  </g>

  <!-- straight fence rails, right of gate -->
  <g id="right-rails" class="wood">
    <line x1="920" y1="245" x2="1450" y2="245" />
    <line x1="920" y1="350" x2="1450" y2="350" />
    <line x1="920" y1="455" x2="1450" y2="455" />
  </g>

  <!-- gate frame and diagonal brace -->
  <g id="gate" class="wood">
    <rect x="680" y="220" width="240" height="240" rx="0" />
    <line x1="690" y1="450" x2="910" y2="230" />
  </g>

  <!-- posts -->
  <g id="posts">
    <rect class="post" x="38"  y="190" width="30" height="305" rx="4" />
    <rect class="post" x="140" y="200" width="30" height="320" rx="4" />
    <rect class="post" x="340" y="200" width="30" height="320" rx="4" />
    <rect class="post" x="640" y="200" width="30" height="320" rx="4" />
    <rect class="post" x="930" y="200" width="30" height="320" rx="4" />
    <rect class="post" x="1230" y="200" width="30" height="320" rx="4" />
    <rect class="post" x="1430" y="200" width="30" height="320" rx="4" />
    <rect class="post" x="1532" y="190" width="30" height="305" rx="4" />
  </g>

  <!-- simple cap lines -->
  <g id="caps" class="line">
    <path d="M38 195 Q53 186 68 195" />
    <path d="M140 205 Q155 196 170 205" />
    <path d="M340 205 Q355 196 370 205" />
    <path d="M640 205 Q655 196 670 205" />
    <path d="M930 205 Q945 196 960 205" />
    <path d="M1230 205 Q1245 196 1260 205" />
    <path d="M1430 205 Q1445 196 1460 205" />
    <path d="M1532 195 Q1547 186 1562 195" />
  </g>

  <!-- gate hardware -->
  <g id="hardware" class="hardware">
    <rect x="650" y="258" width="22" height="32" rx="5" />
    <rect x="650" y="400" width="22" height="32" rx="5" />
    <line x1="935" y1="340" x2="980" y2="340" />
    <line x1="948" y1="322" x2="948" y2="362" />
    <line x1="968" y1="322" x2="968" y2="362" />
  </g>
  </svg>

  <svg id="wordmark-layer" x="45" y="590" width="1095" height="259" viewBox="0 0 400 94.624" overflow="visible">
    
	<defs>
		<style>
      .main{font-family:&quot;Good Times Bold&quot;,&quot;Good Times&quot;,&quot;Michroma&quot;,&quot;Eurostile Extended&quot;,&quot;Arial Black&quot;,sans-serif;font-size:55px;font-weight:900;font-stretch:expanded;dominant-baseline:alphabetic}.white{fill:#fbf7f9;stroke:#ffb205;stroke-width:.75;paint-order:stroke fill}.goldline{stroke:#ffb205;stroke-width:1.45;stroke-linecap:round}
    </style>
	</defs>
	<text class="main white" x="15.8" y="53.15" textLength="162.5" lengthAdjust="spacingAndGlyphs">PAD</text>
	<text class="main" x="180.3" y="53.15" textLength="203.1" lengthAdjust="spacingAndGlyphs" style="fill:#ffb205">DUCK</text>
	<path class="goldline" d="M34.45 76.55h76.8"/>
	<text class="white" x="132.5" y="85.8" textLength="138" lengthAdjust="spacingAndGlyphs" style="font-family:&quot;Good Times Bold&quot;,&quot;Good Times&quot;,&quot;Michroma&quot;,&quot;Eurostile Extended&quot;,&quot;Arial Black&quot;,sans-serif;font-size:30px;font-weight:900;letter-spacing:18px;dominant-baseline:alphabetic">IPAM</text>
	<path class="goldline" d="M288 76.55h76"/>

  </svg>
</svg>
